<?xml version="1.0"?>
<svg width="908" height="908" xmlns="http://www.w3.org/2000/svg" xmlns:svg="http://www.w3.org/2000/svg" fill-rule="evenodd">
 <style>
  <![CDATA[.B{opacity:.757}.C{opacity:.831}.D{opacity:.769}.E{opacity:.678}.F{opacity:.737}.G{fill:#e7cf76}.H{opacity:.91}.I{opacity:.847}.J{opacity:.961}.K{opacity:.576}.L{opacity:.667}.M{opacity:.808}.N{opacity:.635}.O{opacity:.584}.P{opacity:.416}.Q{opacity:.78}.R{opacity:.827}.S{opacity:.231}.T{opacity:.596}.U{opacity:.455}.V{opacity:.698}.W{opacity:.627}.X{opacity:.816}.Y{opacity:.639}.Z{opacity:.898}.a{opacity:.843}.b{opacity:.494}.c{opacity:.839}.d{opacity:.851}.e{fill:#e7cf73}.f{opacity:.475}.g{opacity:.871}.h{fill:#e2d6a8}]]>
 </style>
 <defs>
  <path d="m379.5,8.5c-2.58,1.97 -5.58,2.97 -9,3c2.71,-1.57 5.71,-2.57 9,-3z" id="B"/>
  <path d="m351.5,17.5c-1.13,1.71 -2.8,2.38 -5,2c1.43,-1.04 3.1,-1.7 5,-2z" id="C"/>
  <path d="m309.5,36.5c-0.47,1.41 -1.47,2.07 -3,2c0.47,-1.41 1.47,-2.07 3,-2z" id="D"/>
  <path d="m606.5,38.5c1.21,0.43 2.21,1.1 3,2c-1.68,0.22 -2.68,-0.45 -3,-2z" id="E"/>
  <path d="m613.5,42.5c1.73,0.53 3.06,1.53 4,3c-2.13,-0.05 -3.47,-1.05 -4,-3z" id="F"/>
  <path d="m619.5,46.5c1.53,-0.07 2.53,0.59 3,2c-1.53,0.07 -2.53,-0.59 -3,-2z" id="G"/>
  <path d="m288.5,49.5c-0.76,1.76 -2.1,2.76 -4,3c0.76,-1.76 2.1,-2.76 4,-3z" id="H"/>
  <path d="m269.5,63.5c-1.41,2.41 -3.41,4.08 -6,5c1.41,-2.41 3.41,-4.08 6,-5z" id="I"/>
  <path d="m651.5,70.5c1.9,0.24 3.24,1.24 4,3c-1.9,-0.24 -3.24,-1.24 -4,-3z" id="J"/>
  <path d="m263.5,68.5c-2.07,3.07 -4.74,5.41 -8,7c2.07,-3.07 4.74,-5.41 8,-7z" id="K"/>
  <path d="m619.5,80.5c2.25,0.58 3.91,1.91 5,4c-2.25,-0.58 -3.91,-1.91 -5,-4z" id="L"/>
  <path d="m521.5,89.5c-0.58,2.25 -1.91,3.92 -4,5c0.58,-2.25 1.91,-3.92 4,-5z" id="M"/>
  <path d="m636.5,94.5c2.59,0.92 4.59,2.59 6,5c-2.59,-0.92 -4.59,-2.59 -6,-5z" id="N"/>
  <path d="m683.5,102.5c2.41,1.41 4.08,3.41 5,6c-2.41,-1.41 -4.08,-3.41 -5,-6z" id="O"/>
  <path d="m688.5,108.5c2.09,1.08 3.42,2.75 4,5c-2.09,-1.08 -3.42,-2.75 -4,-5z" id="P"/>
  <path d="m402.5,110.5c-2.01,1.42 -4.35,2.09 -7,2c2.01,-1.42 4.35,-2.09 7,-2z" id="Q"/>
  <path d="m218.5,115.5c-0.24,1.9 -1.24,3.24 -3,4c0.24,-1.9 1.24,-3.24 3,-4z" id="R"/>
  <path d="m696.5,118.5c1.41,0.47 2.07,1.47 2,3c-1.41,-0.47 -2.07,-1.47 -2,-3z" id="S"/>
  <path d="m698.5,121.5c1.76,0.76 2.76,2.1 3,4c-1.76,-0.76 -2.76,-2.1 -3,-4z" id="T"/>
  <path d="m664.5,123.5c2.68,0.03 4.01,1.36 4,4c-1.67,-1 -3,-2.33 -4,-4z" id="U"/>
  <path d="m364.5,124.5c-0.99,1.91 -2.65,2.91 -5,3c1.16,-1.75 2.83,-2.75 5,-3z" id="V"/>
  <path d="m209.5,127.5c0.07,1.53 -0.59,2.53 -2,3c-0.07,-1.53 0.59,-2.53 2,-3z" id="W"/>
  <path d="m673.5,134.5c3.21,0.63 4.87,2.63 5,6l-5,-6z" id="X"/>
  <path d="m552.5,135.5c0.09,2.65 -0.58,4.99 -2,7c-0.09,-2.65 0.58,-4.99 2,-7z" id="Y"/>
  <path d="m200.5,141.5c-0.09,2.35 -1.09,4.01 -3,5c0.25,-2.17 1.25,-3.84 3,-5z" id="Z"/>
  <path d="m575.5,145.5c1.67,1 3,2.33 4,4c-2.64,0.01 -3.98,-1.32 -4,-4z" id="a"/>
  <path d="m311.5,378.5a12.18,12.18 0 0 1 3,5c-2.26,-0.84 -3.26,-2.51 -3,-5z" id="b"/>
  <path d="m579.5,402.5c-0.92,2.59 -2.59,4.59 -5,6c0.92,-2.59 2.59,-4.59 5,-6z" id="c"/>
  <path d="m557.5,424.5c-1.09,2.09 -2.75,3.42 -5,4c1.09,-2.09 2.75,-3.42 5,-4z" id="d"/>
 </defs>
 <g class="layer">
  <title>Layer 1</title>
  <path d="m428.5,163.5l60,0c42.56,4.96 82.56,17.96 120,39c0.32,1.55 1.32,2.22 3,2c1.65,0.16 2.99,0.83 4,2c0.53,1.95 1.87,2.95 4,3c0.99,-0.17 1.66,0.16 2,1c0.47,1.41 1.47,2.07 3,2c0.99,-0.17 1.66,0.16 2,1c0.53,1.95 1.87,2.95 4,3c0.53,1.95 1.87,2.95 4,3c1.9,0.24 3.24,1.24 4,3c0.47,1.41 1.47,2.07 3,2c0.53,1.95 1.87,2.95 4,3l4,3c0,1.33 0.67,2 2,2a3,3 0 0 1 2,2c0.76,1.76 2.1,2.76 4,3l6,5c3.27,4.94 7.27,9.27 12,13c1.67,1 3,2.33 4,4c1.26,2.93 3.26,5.26 6,7c0.92,2.59 2.59,4.59 5,6c0.58,2.25 1.91,3.92 4,5c0.58,2.25 1.91,3.92 4,5c-0.07,1.53 0.59,2.53 2,3c0.24,1.9 1.24,3.24 3,4c0.24,1.9 1.24,3.24 3,4c0.84,0.34 1.17,1.01 1,2c-0.07,1.53 0.59,2.53 2,3c-0.07,1.53 0.59,2.53 2,3c-0.07,1.53 0.59,2.53 2,3c-0.07,1.53 0.59,2.53 2,3c1.17,1.01 1.84,2.35 2,4c-0.07,1.53 0.59,2.53 2,3c1.17,1.01 1.84,2.35 2,4c-0.07,1.53 0.59,2.53 2,3c7,11.68 12.67,24.01 17,37c0.08,2.83 0.75,5.49 2,8c-9.17,1.32 -18.51,1.32 -28,0c-1.58,-2.08 -2.58,-4.41 -3,-7c0.42,-2.28 -0.24,-3.95 -2,-5l-15,-28c-0.47,-1.7 -0.47,-3.2 0,-4.5c-1.57,-1.41 -3.23,-2.58 -5,-3.5l-9,-14c-0.13,-3.37 -1.79,-5.37 -5,-6l0,-1c0.01,-2.64 -1.32,-3.97 -4,-4l-1,-2c0.01,-2.64 -1.32,-3.97 -4,-4l-4,-5c-0.33,-2.33 -1.67,-3.67 -4,-4l-14,-15c-1.41,-2.41 -3.41,-4.08 -6,-5a3,3 0 0 1 -2,-2c-0.76,-1.76 -2.1,-2.76 -4,-3a3,3 0 0 1 -2,-2c-0.76,-1.76 -2.1,-2.76 -4,-3c-1.09,-2.09 -2.75,-3.42 -5,-4c-0.47,-1.41 -1.47,-2.07 -3,-2c-1.9,-0.24 -3.24,-1.24 -4,-3c-0.47,-1.41 -1.47,-2.07 -3,-2c-1.93,-0.61 -3.6,-1.61 -5,-3c-0.47,-1.41 -1.47,-2.07 -3,-2c-0.84,-2.26 -2.51,-3.26 -5,-3c-13.91,-7.79 -28.24,-14.79 -43,-21c0.09,-1 -0.25,-1.83 -1,-2.5c-2.62,-0.82 -5.28,-1.32 -8,-1.5c-3.36,-0.19 -6.36,-1.19 -9,-3c-2.01,-1.42 -4.35,-2.09 -7,-2c-40.35,-9.35 -81.02,-11.02 -122,-5a49.52,49.52 0 0 0 -13,1.5c-0.56,0.38 -0.89,0.88 -1,1.5c-91.34,25.5 -155.67,81.83 -193,169c-8.95,1.14 -17.95,1.31 -27,0.5c-0.58,-0.89 -0.91,-1.89 -1,-3c5.2,-15.24 11.87,-29.74 20,-43.5c1.41,-0.47 2.07,-1.47 2,-3c2.43,-1.55 3.76,-3.88 4,-7c1.91,-0.99 2.91,-2.65 3,-5c-0.17,-0.99 0.16,-1.66 1,-2c1.41,-0.47 2.07,-1.47 2,-3c1.41,-0.47 2.07,-1.47 2,-3c1.41,-0.47 2.07,-1.47 2,-3c1.41,-0.47 2.07,-1.47 2,-3c1.76,-0.76 2.76,-2.1 3,-4c1.76,-0.76 2.76,-2.1 3,-4c1.76,-0.76 2.76,-2.1 3,-4c2.09,-1.08 3.42,-2.75 4,-5c2.09,-1.08 3.42,-2.75 4,-5c2.09,-1.08 3.42,-2.75 4,-5a3,3 0 0 1 2,-2c8,-7.33 15.67,-15 23,-23c3.26,-1.59 5.93,-3.93 8,-7c2.59,-0.92 4.59,-2.59 6,-5c1.9,-0.24 3.24,-1.24 4,-3c1.9,-0.24 3.24,-1.24 4,-3c1.9,-0.24 3.24,-1.24 4,-3c1.53,0.07 2.53,-0.59 3,-2c1.9,-0.24 3.24,-1.24 4,-3c1.53,0.07 2.53,-0.59 3,-2c0.34,-0.84 1.01,-1.17 2,-1c1.53,0.07 2.53,-0.59 3,-2c1.53,0.07 2.53,-0.59 3,-2c0.34,-0.84 1.01,-1.17 2,-1c1.53,0.07 2.53,-0.59 3,-2c0.34,-0.84 1.01,-1.17 2,-1c1.53,0.07 2.53,-0.59 3,-2a139.99,139.99 0 0 1 20,-10c2.2,0.38 3.87,-0.29 5,-2c2.01,-1.57 4.34,-2.57 7,-3c2.2,0.38 3.87,-0.29 5,-2c2.2,0.38 3.87,-0.29 5,-2c2.71,-1.57 5.71,-2.57 9,-3c3.42,-0.03 6.42,-1.03 9,-3l1,0c3.42,-0.03 6.42,-1.03 9,-3c1.54,-0.8 3.21,-1.13 5,-1c2.93,-0.07 5.6,-0.73 8,-2c11.11,-3.4 22.44,-5.39 34,-6z" fill="#eec218" id="svg_1"/>
  <path class="R" d="m392.5,5.5c-2.4,1.27 -5.07,1.94 -8,2c2.34,-1.54 5,-2.21 8,-2z" fill="#ead278" id="svg_2"/>
  <path d="m408.5,194.5c-4.49,1.23 -9.16,2.23 -14,3c0.11,-0.62 0.44,-1.12 1,-1.5a49.52,49.52 0 0 1 13,-1.5z" fill="#f1d25b" id="svg_3" opacity="0.99"/>
  <path d="m530.5,199.5c2.65,-0.09 4.99,0.58 7,2c-2.65,0.09 -4.99,-0.58 -7,-2z" fill="#eacf65" id="svg_4" opacity="0.93"/>
  <path d="m546.5,204.5c2.72,0.18 5.38,0.68 8,1.5c0.75,0.67 1.09,1.5 1,2.5c-3.24,-0.96 -6.24,-2.3 -9,-4z" fill="#efcd51" id="svg_5"/>
  <path d="m598.5,229.5c2.49,-0.26 4.16,0.74 5,3c-1.93,-0.61 -3.6,-1.61 -5,-3z" fill="#f4d565" id="svg_6"/>
  <path class="T" d="m649.5,230.5a3,3 0 0 1 2,2c-1.33,0 -2,-0.67 -2,-2z" fill="#fbe9a7" id="svg_7"/>
  <path d="m490.5,409.5c-1.3,1.38 -1.3,2.88 0,4.5l93,0.5l0,5c-66.88,90.42 -135.22,179.75 -205,268c-1.76,-1.05 -2.42,-2.72 -2,-5c-0.27,-1.6 0.07,-2.93 1,-4c1.42,-2.01 2.09,-4.35 2,-7c-0.27,-1.6 0.07,-2.93 1,-4c1.42,-2.01 2.09,-4.35 2,-7c-0.27,-1.6 0.07,-2.93 1,-4c1.42,-2.01 2.09,-4.35 2,-7c-0.27,-1.6 0.07,-2.93 1,-4c1.42,-2.01 2.09,-4.35 2,-7c1.42,-2.01 2.09,-4.35 2,-7c-0.27,-1.6 0.07,-2.93 1,-4c1.42,-2.01 2.09,-4.35 2,-7c-0.27,-1.6 0.07,-2.93 1,-4c1.42,-2.01 2.09,-4.35 2,-7c-0.27,-1.6 0.07,-2.93 1,-4c1.42,-2.01 2.09,-4.35 2,-7c1.42,-2.01 2.09,-4.35 2,-7c-0.27,-1.6 0.07,-2.93 1,-4c1.42,-2.01 2.09,-4.35 2,-7c-0.27,-1.6 0.07,-2.93 1,-4c1.42,-2.01 2.09,-4.35 2,-7c-0.27,-1.6 0.07,-2.93 1,-4c1.42,-2.01 2.09,-4.35 2,-7c-0.27,-1.6 0.07,-2.93 1,-4c1.42,-2.01 2.09,-4.35 2,-7c1.42,-2.01 2.09,-4.35 2,-7c-0.27,-1.6 0.07,-2.93 1,-4c1.42,-2.01 2.09,-4.35 2,-7c-0.27,-1.6 0.07,-2.93 1,-4c1.42,-2.01 2.09,-4.35 2,-7l0,-2c1.29,-1.04 1.29,-2.21 0,-3.5l-94,-0.5c-1.1,-1.1 -1.26,-2.43 -0.5,-4c1.62,-2.26 3.45,-4.26 5.5,-6c1.41,-0.47 2.07,-1.47 2,-3a45.73,45.73 0 0 1 7,-9c2.09,-1.08 3.42,-2.75 4,-5a39.74,39.74 0 0 1 9,-12c2.66,-1.15 4.32,-3.15 5,-6c-0.07,-1.53 0.59,-2.53 2,-3c2.09,-1.08 3.42,-2.75 4,-5c1.41,-0.47 2.07,-1.47 2,-3a1321.05,1321.05 0 0 1 30,-39c2.09,-1.09 3.42,-2.75 4,-5c0.24,-1.9 1.24,-3.24 3,-4s2.76,-2.1 3,-4c1.76,-0.76 2.76,-2.1 3,-4c1.76,-0.76 2.76,-2.1 3,-4c1.1,-1.89 2.44,-3.56 4,-5c2.09,-1.09 3.42,-2.75 4,-5c0.24,-1.9 1.24,-3.24 3,-4c2.09,-1.09 3.42,-2.75 4,-5a27.68,27.68 0 0 1 6,-8c2.09,-1.09 3.42,-2.75 4,-5a110.04,110.04 0 0 1 12,-16c1.76,-0.76 2.76,-2.1 3,-4c1.76,-0.76 2.76,-2.1 3,-4c2.09,-1.09 3.42,-2.75 4,-5c0.24,-1.9 1.24,-3.24 3,-4s2.76,-2.1 3,-4c2.09,-1.09 3.42,-2.75 4,-5c1.61,-3.55 3.94,-6.55 7,-9c1.41,-0.47 2.07,-1.47 2,-3c2.09,-1.09 3.42,-2.75 4,-5c2.09,-1.09 3.42,-2.75 4,-5a110.04,110.04 0 0 1 12,-16c1.76,-0.76 2.76,-2.1 3,-4c2.09,-1.08 3.42,-2.75 4,-5a27.68,27.68 0 0 1 6,-8c2.09,-1.08 3.42,-2.75 4,-5c0.24,-1.9 1.24,-3.24 3,-4c2.09,-1.08 3.42,-2.75 4,-5c2.99,-5.99 7.33,-10.66 13,-14a4943.27,4943.27 0 0 1 -46,170z" fill="#eec10e" id="svg_8"/>
  <path d="m663.5,242.5c4.73,3.73 8.73,8.06 12,13c-4.73,-3.73 -8.73,-8.06 -12,-13z" fill="#f9ebb6" id="svg_9" opacity="0.42"/>
  <path d="m257.5,239.5c-7.33,8 -15,15.67 -23,23c-0.13,-0.74 0.04,-1.41 0.5,-2c7.09,-7.59 14.59,-14.59 22.5,-21z" fill="#f2dc89" id="svg_10" opacity="0.71"/>
  <path d="m679.5,259.5c2.74,1.74 4.74,4.07 6,7c-2.74,-1.74 -4.74,-4.07 -6,-7z" fill="#fae598" id="svg_11" opacity="0.82"/>
  <path d="m293.5,447.5c-1.53,4.4 -2.2,9.06 -2,14c-0.06,6.23 0.6,12.23 2,18l5,27c0.3,3.02 0.8,6.02 1.5,9c0.71,0.88 1.54,1.55 2.5,2c3.41,8.48 7.07,16.81 11,25c-0.26,2.49 0.74,4.16 3,5c1.17,1.01 1.84,2.35 2,4c0.24,1.9 1.24,3.24 3,4c-0.07,1.53 0.59,2.53 2,3c6.99,8.33 14.33,16.33 22,24c0.02,2.68 1.36,4.01 4,4l14,11c0.95,2.63 0.95,5.29 0,8c-2.21,2.82 -3.21,6.15 -3,10c-1.13,4.72 -2.46,9.39 -4,14c-1.6,1.06 -3.27,1.06 -5,0c-0.47,-1.41 -1.47,-2.07 -3,-2c-0.99,0.17 -1.66,-0.16 -2,-1c-0.76,-1.76 -2.1,-2.76 -4,-3c-0.47,-1.41 -1.47,-2.07 -3,-2c-2.41,-1.2 -4.41,-2.87 -6,-5c-0.47,-1.41 -1.47,-2.07 -3,-2a3,3 0 0 1 -2,-2c-1.41,-2.41 -3.41,-4.08 -6,-5a163.43,163.43 0 0 1 -36,-44c0.21,-1.68 -0.45,-2.68 -2,-3c-19.41,-34.36 -27.74,-71.36 -25,-111c1.38,-5.44 2.05,-11.11 2,-17c0.15,-4.42 0.82,-8.76 2,-13c1.66,-1.94 2.33,-4.27 2,-7l0,-1c2.31,-3.59 3.64,-7.59 4,-12l0,-1c1.71,-1.13 2.38,-2.8 2,-5c1.82,-5.64 4.15,-10.97 7,-16c1.41,-0.47 2.07,-1.47 2,-3c0.16,-1.65 0.83,-2.99 2,-4c1.91,-0.99 2.91,-2.65 3,-5c1.41,-0.47 2.07,-1.47 2,-3c-0.17,-0.99 0.16,-1.66 1,-2c1.41,-0.47 2.07,-1.47 2,-3c1.41,-0.47 2.07,-1.47 2,-3c1.76,-0.76 2.76,-2.1 3,-4s1.24,-3.24 3,-4c2.09,-1.09 3.42,-2.75 4,-5c1.76,-0.76 2.76,-2.1 3,-4a75.57,75.57 0 0 1 8,-9c2.67,-0.67 4.33,-2.33 5,-5c3.94,-2.27 7.27,-5.27 10,-9a55.85,55.85 0 0 1 14,-11c1.9,-0.24 3.24,-1.24 4,-3c1.7,-1.69 3.7,-3.03 6,-4c1.53,0.07 2.53,-0.59 3,-2c1.68,-1.51 3.68,-2.51 6,-3c2.35,-0.09 4.01,-1.09 5,-3c2.15,-1.24 4.48,-2.24 7,-3c3.67,0 6.67,-1.33 9,-4c3.22,0.16 5.88,-0.84 8,-3c2.01,-1.42 4.35,-2.09 7,-2s4.99,-0.58 7,-2c20.8,-6.1 42.13,-8.26 64,-6.5c1.05,1.39 1.22,2.89 0.5,4.5a291.8,291.8 0 0 1 -22.5,28.5c-59.41,6.6 -104.24,35.43 -134.5,86.5a190.15,190.15 0 0 0 -18.5,60z" fill="#eec215" id="svg_12"/>
  <path d="m658.5,278.5c2.33,0.33 3.67,1.67 4,4c-1.67,-1 -3,-2.33 -4,-4z" fill="#e4d5a0" id="svg_13" opacity="0.56"/>
  <path d="m390.5,278.5c-2.12,2.16 -4.78,3.16 -8,3c2.39,-1.52 5.06,-2.52 8,-3z" fill="#eace65" id="svg_14" opacity="0.96"/>
  <path d="m382.5,281.5c-2.33,2.67 -5.33,4 -9,4c2.59,-2.09 5.59,-3.42 9,-4z" fill="#f0cf5a" id="svg_15"/>
  <path d="m560.5,297.5c-2.12,-0.18 -4.12,0.16 -6,1c1.33,-3.66 3.33,-3.99 6,-1z" fill="#f3d46b" id="svg_16"/>
  <path d="m560.5,297.5c0.53,1.95 1.87,2.95 4,3l3,2c0.53,1.95 1.87,2.95 4,3c2.25,0.91 4.25,2.25 6,4c0.02,2.68 1.36,4.01 4,4l3,2c0.02,2.68 1.36,4.01 4,4a138.7,138.7 0 0 1 14,14c0.92,2.59 2.59,4.59 5,6c0.92,2.59 2.59,4.59 5,6c1.41,0.47 2.07,1.47 2,3c0.24,1.9 1.24,3.24 3,4c-0.07,1.53 0.59,2.53 2,3c-0.07,1.53 0.59,2.53 2,3c0.24,1.9 1.24,3.24 3,4c1.84,2.35 3.17,5.01 4,8c-0.07,1.53 0.59,2.53 2,3c4.13,7.26 7.46,14.93 10,23c0.69,5.41 2.36,10.41 5,15c16.01,59.76 6.51,115.1 -28.5,166c-3.37,4.19 -6.87,8.19 -10.5,12c-1.41,0.47 -2.07,1.47 -2,3c-41.77,47.54 -94.44,69.87 -158,67c-0.71,-0.9 -1.71,-1.24 -3,-1l0,-3c0.58,-2.25 1.91,-3.92 4,-5c1.41,-0.47 2.07,-1.47 2,-3c2.09,-1.08 3.42,-2.75 4,-5c1.76,-0.76 2.76,-2.1 3,-4c1.41,-0.47 2.07,-1.47 2,-3c1.79,-3.62 4.45,-6.45 8,-8.5c28.1,-3.53 54.1,-12.7 78,-27.5c1.53,0.07 2.53,-0.59 3,-2c1.53,0.07 2.53,-0.59 3,-2c1.9,-0.24 3.24,-1.24 4,-3c2.25,-0.58 3.91,-1.91 5,-4c2.59,-0.92 4.59,-2.59 6,-5c3.33,-4 7,-7.67 11,-11c2.41,-1.41 4.08,-3.41 5,-6a15.72,15.72 0 0 1 6,-7c1.41,-0.47 2.07,-1.47 2,-3c1.41,-0.47 2.07,-1.47 2,-3c1.41,-0.47 2.07,-1.47 2,-3c1.41,-0.47 2.07,-1.47 2,-3c1.14,-0.41 2.14,-1.07 3,-2c3.19,-5.37 5.52,-11.04 7,-17c0.3,-1.9 0.96,-3.57 2,-5c2.33,-1.68 3.33,-4.01 3,-7c8.19,-26.85 10.19,-54.19 6,-82c0.16,-2.03 0,-4.03 -0.5,-6c-0.38,-0.56 -0.88,-0.89 -1.5,-1c-2.53,-10.6 -5.87,-20.94 -10,-31c0.04,-2.96 -0.96,-5.29 -3,-7l-14,-22c-0.13,-3.37 -1.79,-5.37 -5,-6l-4,-5c0.01,-2.64 -1.32,-3.97 -4,-4a20.69,20.69 0 0 1 -1,-5l-4,0l0,-1c-0.47,-1.41 -1.47,-2.07 -3,-2c-2.33,-1.67 -4.33,-3.67 -6,-6c-1.09,-2.09 -2.75,-3.42 -5,-4c-1.9,-0.24 -3.24,-1.24 -4,-3s-2.1,-2.76 -4,-3c-1.33,-1.33 -1.33,-2.67 0,-4c1.42,-2.01 2.09,-4.35 2,-7c0.43,-3.93 1.43,-7.59 3,-11c1.42,-2.01 2.09,-4.35 2,-7l0,-1c1.88,-0.84 3.88,-1.18 6,-1z" fill="#eec215" id="svg_17"/>
  <path d="m199.5,310.5c-0.24,3.12 -1.57,5.45 -4,7c0.58,-2.83 1.91,-5.16 4,-7z" fill="#ecce68" id="svg_18"/>
  <path class="Z" d="m328.5,314.5c-2.73,3.73 -6.06,6.73 -10,9c2.73,-3.73 6.06,-6.73 10,-9z" fill="#f5d96f" id="svg_19"/>
  <path d="m689.5,318.5c1.77,0.92 3.43,2.09 5,3.5c-0.47,1.3 -0.47,2.8 0,4.5l-5,-8z" fill="#f2d266" id="svg_20"/>
  <path d="m318.5,323.5c-0.67,2.67 -2.33,4.33 -5,5c1.33,-2 3,-3.67 5,-5z" fill="#f5d866" id="svg_21" opacity="0.87"/>
  <g class="G" id="svg_22"/>
  <path d="m569.5,347.5l4,0a20.69,20.69 0 0 0 1,5c-1.45,-1.9 -3.11,-3.57 -5,-5z" fill="#eacb5e" id="svg_23"/>
  <path d="m709.5,354.5c1.76,1.05 2.42,2.72 2,5c-1.43,-1.28 -2.1,-2.95 -2,-5z" fill="#ebcd64" id="svg_24"/>
  <path d="m740.5,358.5c2.16,2.45 2.83,5.12 2,8c-1.25,-2.51 -1.92,-5.17 -2,-8z" fill="#f0d57d" id="svg_25"/>
  <path class="C" d="m601.5,389.5c2.04,1.71 3.04,4.04 3,7c-1.79,-1.93 -2.79,-4.26 -3,-7z" fill="#f4d873" id="svg_26"/>
  <path class="a" d="m271.5,393.5c0.38,2.2 -0.29,3.87 -2,5c0.3,-1.9 0.96,-3.57 2,-5z" fill="#edd682" id="svg_27"/>
  <path class="Z" d="m640.5,396.5c2.24,4.72 3.9,9.72 5,15c-2.64,-4.59 -4.31,-9.59 -5,-15z" fill="#efd77f" id="svg_28"/>
  <path d="m269.5,399.5c-0.36,4.41 -1.69,8.41 -4,12c0.76,-4.28 2.1,-8.28 4,-12z" fill="#f2da82" id="svg_29" opacity="0.94"/>
  <path class="Q" d="m490.5,409.5c-0.17,1.32 0.16,2.49 1,3.5l93,1.5c1.51,2.12 1.18,3.79 -1,5l0,-5a4322.51,4322.51 0 0 1 -93,-0.5c-1.3,-1.62 -1.3,-3.12 0,-4.5z" fill="#eece49" id="svg_30"/>
  <path d="m265.5,412.5c0.33,2.73 -0.34,5.06 -2,7c0.22,-2.57 0.89,-4.9 2,-7z" fill="#e7cf79" id="svg_31" opacity="0.87"/>
  <path d="m1.5,424.5l0,-4a6692.69,6692.69 0 0 1 200,-0.5c0.98,8.08 1.32,16.25 1,24.5c-61.67,0.17 -123.33,0 -185,-0.5a471.72,471.72 0 0 0 -16,-19.5zm908,-4l0,4c-5.47,6.31 -10.8,12.81 -16,19.5l-184,0c-0.65,-3.92 -0.98,-7.92 -1,-12c0.04,-4.26 0.71,-8.26 2,-12a6625.93,6625.93 0 0 1 199,0.5z" fill="#eec217" id="svg_32"/>
  <path d="m614.5,427.5c0.62,0.11 1.12,0.44 1.5,1c0.5,1.97 0.66,3.97 0.5,6c-0.91,-2.16 -1.57,-4.49 -2,-7z" fill="#edd064" id="svg_33" opacity="0.85"/>
  <path d="m261.5,432.5c0.05,5.89 -0.62,11.56 -2,17c-0.05,-5.89 0.62,-11.56 2,-17z" fill="#f2da7e" id="svg_34" opacity="0.56"/>
  <path d="m31.5,457.5l170,0.5c1.15,7.75 1.31,15.59 0.5,23.5a3836.42,3836.42 0 0 1 -151.5,0.5l-20,-22c0.75,-0.67 1.09,-1.5 1,-2.5zm678,0l170,0.5c0.46,0.41 0.79,0.91 1,1.5a320.14,320.14 0 0 1 -19,22.5l-152,0a76.34,76.34 0 0 1 0,-24.5z" fill="#eec213" id="svg_35"/>
  <path d="m293.5,447.5c-1.22,10.66 -1.22,21.33 0,32c-1.4,-5.77 -2.06,-11.77 -2,-18c-0.2,-4.94 0.47,-9.6 2,-14z" fill="#efcd48" id="svg_36" opacity="0.84"/>
  <path d="m359.5,467.5c-0.68,2.85 -2.34,4.85 -5,6c0.97,-2.63 2.64,-4.63 5,-6z" fill="#eacb62" id="svg_37"/>
  <path d="m66.5,495.5l134,0.5l1.5,1.5c0.67,7.67 0.67,15.33 0,23a2428.26,2428.26 0 0 1 -120.5,0.5c-6.1,-7.09 -11.77,-14.42 -17,-22c0.36,-1.43 1.03,-2.6 2,-3.5z" fill="#eec212" id="svg_38"/>
  <path d="m710.5,495.5l135,0.5c1.35,2.79 0.85,5.29 -1.5,7.5c-5.21,5.54 -10.04,11.38 -14.5,17.5a3598.45,3598.45 0 0 1 -120,0c-1.15,-7.75 -1.31,-15.59 -0.5,-23.5c0.72,-0.54 1.22,-1.21 1.5,-2z" fill="#eec213" id="svg_39"/>
  <path class="O" d="m327.5,512.5l94,0.5c1.29,1.29 1.29,2.46 0,3.5c0.09,-1 -0.25,-1.83 -1,-2.5l-93,-1.5z" fill="#eed466" id="svg_40"/>
  <path d="m298.5,506.5c1.7,3.44 3.04,7.11 4,11c-0.96,-0.45 -1.79,-1.12 -2.5,-2c-0.7,-2.98 -1.2,-5.98 -1.5,-9z" fill="#eccb4e" id="svg_41"/>
  <path d="m610.5,516.5c0.33,2.99 -0.67,5.32 -3,7c0.43,-2.66 1.43,-4.99 3,-7z" fill="#e9cb5d" id="svg_42"/>
  <path d="m605.5,528.5c-1.48,5.96 -3.81,11.63 -7,17c-0.86,0.93 -1.86,1.59 -3,2a256.53,256.53 0 0 1 10,-19z" fill="#f3d154" id="svg_43"/>
  <path d="m284.5,560.5c1.55,0.32 2.21,1.32 2,3c-0.9,-0.79 -1.57,-1.79 -2,-3z" fill="#e8ce74" id="svg_44" opacity="0.93"/>
  <path d="m208.5,579.5c-0.26,2.49 0.74,4.16 3,5c2.51,3.68 4.51,7.68 6,12c-0.07,1.53 0.59,2.53 2,3c-0.26,2.49 0.74,4.16 3,5c-0.26,2.49 0.74,4.16 3,5c0.9,0.79 1.57,1.79 2,3c-0.07,1.53 0.59,2.53 2,3c-0.07,1.53 0.59,2.53 2,3c0.84,0.34 1.17,1.01 1,2c0.24,1.9 1.24,3.24 3,4c0.24,1.9 1.24,3.24 3,4c0.24,1.9 1.24,3.24 3,4c0.24,1.9 1.24,3.24 3,4c0.92,2.59 2.59,4.59 5,6c0.92,2.59 2.59,4.59 5,6c1.67,1 3,2.33 4,4c0.02,2.68 1.36,4.01 4,4c0.02,2.68 1.36,4.01 4,4c0.02,2.68 1.36,4.01 4,4c4.81,4.57 9.81,8.9 15,13c0.63,3.21 2.63,4.87 6,5l3,2c0.63,3.21 2.63,4.87 6,5l1,0c0.68,2.58 2.18,4.58 4.5,6c0.99,-0.67 2.15,-0.67 3.5,0c1.56,0.23 2.89,0.9 4,2c0.32,1.55 1.32,2.22 3,2a517.21,517.21 0 0 0 27,14c0.32,1.55 1.32,2.22 3,2c3.41,0.58 6.41,1.91 9,4c1.05,1.76 2.72,2.42 5,2a640.12,640.12 0 0 1 27,9c0.11,0.62 0.44,1.12 1,1.5c1.97,0.5 3.97,0.66 6,0.5l1,0c0.11,0.62 0.44,1.12 1,1.5c3.26,1.04 6.59,1.54 10,1.5l3,0c2.62,1.76 5.62,2.43 9,2c24.66,2.94 49.32,3.27 74,1c6.73,-0.29 13.39,-1.12 20,-2.5c0.92,-0.28 1.58,-0.78 2,-1.5c3.74,-1.6 7.74,-2.6 12,-3c2.65,0.09 4.99,-0.58 7,-2c4.21,-0.18 7.87,-1.51 11,-4c1.92,-0.86 3.92,-1.53 6,-2c3.22,0.15 5.88,-0.85 8,-3c3.7,-2.18 7.7,-3.85 12,-5c5.67,-1.01 10.67,-3.34 15,-7c2.35,-0.09 4.01,-1.09 5,-3c1.01,-1.17 2.35,-1.84 4,-2c1.53,0.07 2.53,-0.59 3,-2c0.34,-0.84 1.01,-1.17 2,-1c1.53,0.07 2.53,-0.59 3,-2a12.18,12.18 0 0 1 5,-3c1.53,0.07 2.53,-0.59 3,-2c1.53,0.07 2.53,-0.59 3,-2c1.53,0.07 2.53,-0.59 3,-2c1.9,-0.24 3.24,-1.24 4,-3c1.53,0.07 2.53,-0.59 3,-2c2.25,-0.58 3.91,-1.91 5,-4c0.76,-1.76 2.1,-2.76 4,-3c3.26,-1.59 5.93,-3.93 8,-7c6.67,-4.67 12.33,-10.33 17,-17c1,-1.67 2.33,-3 4,-4c2.74,-1.74 4.74,-4.07 6,-7c2.41,-1.41 4.08,-3.41 5,-6c1.76,-0.76 2.76,-2.1 3,-4c1.41,-0.47 2.07,-1.47 2,-3c1.1,-1.89 2.44,-3.56 4,-5c1.76,-0.76 2.76,-2.1 3,-4a12.18,12.18 0 0 1 3,-5c1.76,-0.76 2.76,-2.1 3,-4a12.18,12.18 0 0 1 3,-5c1.91,-0.99 2.91,-2.65 3,-5c1.91,-0.99 2.91,-2.65 3,-5c3.54,-3.09 5.54,-7.09 6,-12c0.93,-2.36 2.27,-4.53 4,-6.5c8.99,-0.5 17.99,-0.67 27,-0.5c-2.07,10.47 -6.07,20.14 -12,29c-1.41,0.47 -2.07,1.47 -2,3c-0.49,2.32 -1.49,4.32 -3,6c-1.41,0.47 -2.07,1.47 -2,3c0.17,0.99 -0.16,1.66 -1,2c-1.41,0.47 -2.07,1.47 -2,3c0.17,0.99 -0.16,1.66 -1,2c-1.41,0.47 -2.07,1.47 -2,3c-1.41,0.47 -2.07,1.47 -2,3c-1.41,0.47 -2.07,1.47 -2,3a115.45,115.45 0 0 1 -19,25c-1.41,0.47 -2.07,1.47 -2,3c-1,1.67 -2.33,3 -4,4c-1.41,0.47 -2.07,1.47 -2,3a204.43,204.43 0 0 1 -17,17c-1.53,-0.07 -2.53,0.59 -3,2c-9.44,9.44 -19.77,17.77 -31,25c-1.53,-0.07 -2.53,0.59 -3,2c-5.47,4.45 -11.47,8.12 -18,11c-1.53,-0.07 -2.53,0.59 -3,2c-38.6,21.76 -79.93,34.42 -124,38l-46,0a154.37,154.37 0 0 1 -33,-5c-2.72,-1.41 -5.72,-2.08 -9,-2c-2.4,-1.27 -5.07,-1.93 -8,-2c-4.26,-0.4 -8.26,-1.4 -12,-3c-2.58,-1.97 -5.58,-2.97 -9,-3l-1,0c-1.13,-1.71 -2.8,-2.38 -5,-2a212.56,212.56 0 0 1 -47,-21c-0.47,-1.41 -1.47,-2.07 -3,-2c-0.99,0.17 -1.66,-0.16 -2,-1c-0.47,-1.41 -1.47,-2.07 -3,-2c-0.99,0.17 -1.66,-0.16 -2,-1c-0.47,-1.41 -1.47,-2.07 -3,-2c-0.47,-1.41 -1.47,-2.07 -3,-2c-0.47,-1.41 -1.47,-2.07 -3,-2c-0.99,0.17 -1.66,-0.16 -2,-1c-0.76,-1.76 -2.1,-2.76 -4,-3c-0.47,-1.41 -1.47,-2.07 -3,-2c-0.76,-1.76 -2.1,-2.76 -4,-3c-0.76,-1.76 -2.1,-2.76 -4,-3c-0.76,-1.76 -2.1,-2.76 -4,-3c-1.41,-2.41 -3.41,-4.08 -6,-5c-1.41,-2.41 -3.41,-4.08 -6,-5a3,3 0 0 1 -2,-2c-1.74,-2.74 -4.07,-4.74 -7,-6c0,-2 -1,-3 -3,-3a45.41,45.41 0 0 1 -8,-8c-0.92,-2.59 -2.59,-4.59 -5,-6c-1.67,-1 -3,-2.33 -4,-4c0.07,-1.53 -0.59,-2.53 -2,-3a3,3 0 0 1 -2,-2c0,-1.33 -0.67,-2 -2,-2c-3.75,-4.41 -7.08,-9.07 -10,-14c-0.05,-2.13 -1.05,-3.46 -3,-4c0.07,-1.53 -0.59,-2.53 -2,-3c0.07,-1.53 -0.59,-2.53 -2,-3c-0.9,-0.79 -1.57,-1.79 -2,-3c0.07,-1.53 -0.59,-2.53 -2,-3c-0.84,-0.34 -1.17,-1.01 -1,-2c0.07,-1.53 -0.59,-2.53 -2,-3c-0.84,-0.34 -1.17,-1.01 -1,-2c0.07,-1.53 -0.59,-2.53 -2,-3c-1.51,-1.68 -2.51,-3.68 -3,-6c0.07,-1.53 -0.59,-2.53 -2,-3c-4.33,-7.33 -8.16,-14.99 -11.5,-23c-1.94,-5.73 0.06,-8.06 6,-7l20.5,1.5c0.56,0.38 0.89,0.88 1,1.5z" fill="#eec218" id="svg_45"/>
  <path d="m705.5,584.5c-0.46,4.91 -2.46,8.91 -6,12c1.49,-4.32 3.49,-8.32 6,-12z" fill="#eccb56" id="svg_46"/>
  <path d="m363.5,605.5c-0.71,3.52 -1.71,6.86 -3,10c-0.21,-3.85 0.79,-7.18 3,-10z" fill="#ecd374" id="svg_47" opacity="0.74"/>
  <path d="m351.5,629.5c1.73,1.06 3.4,1.06 5,0c-1.54,2.55 -3.2,2.55 -5,0z" fill="#e6d07c" id="svg_48" opacity="0.57"/>
  <path d="m211.5,637.5c1.95,0.54 2.95,1.87 3,4c-1.47,-0.94 -2.47,-2.27 -3,-4z" fill="#f9df87" id="svg_49" opacity="0.98"/>
  <path class="K" d="m667.5,642.5c-1.26,2.93 -3.26,5.26 -6,7c1.26,-2.93 3.26,-5.26 6,-7z" fill="#efda8f" id="svg_50"/>
  <path class="W" d="m224.5,655.5c1.33,0 2,0.67 2,2a3,3 0 0 1 -2,-2z" fill="#fae7a3" id="svg_51"/>
  <path d="m443.5,655.5l0,3c1.29,-0.24 2.29,0.1 3,1l-4,0c-0.27,-1.6 0.07,-2.93 1,-4z" fill="#e4d391" id="svg_52" opacity="0.26"/>
  <path d="m657.5,653.5c-4.67,6.67 -10.33,12.33 -17,17a204.43,204.43 0 0 1 17,-17z" fill="#eed473" id="svg_53" opacity="0.78"/>
  <path class="F" d="m247.5,680.5c2,0 3,1 3,3c-1.33,-0.67 -2.33,-1.67 -3,-3z" fill="#f9e393" id="svg_54"/>
  <path d="m285.5,677.5l6,5c-3.37,-0.13 -5.37,-1.79 -6,-5z" fill="#efd166" id="svg_55"/>
  <path d="m250.5,683.5c2.93,1.26 5.26,3.26 7,6c-2.93,-1.26 -5.26,-3.26 -7,-6z" fill="#ead898" id="svg_56" opacity="0.71"/>
  <path class="B" d="m376.5,682.5c-0.42,2.28 0.24,3.95 2,5c-0.71,0.9 -1.71,1.24 -3,1c-0.3,-2.24 0.04,-4.24 1,-6z" fill="#e9cf69" id="svg_57"/>
  <path d="m294.5,684.5c2.41,1.2 4.41,2.87 6,5c-3.37,-0.13 -5.37,-1.79 -6,-5z" fill="#edcf6a" id="svg_58"/>
  <path d="m301.5,689.5c2.97,1.65 5.64,3.65 8,6c-1.35,-0.67 -2.51,-0.67 -3.5,0c-2.32,-1.42 -3.82,-3.42 -4.5,-6z" fill="#ebcb5c" id="svg_59"/>
  <path d="m585.5,708.5c-4.33,3.66 -9.33,5.99 -15,7c4.57,-3.12 9.57,-5.45 15,-7z" fill="#eece59" id="svg_60"/>
  <path d="m355.5,719.5c2.05,-0.1 3.72,0.57 5,2c-2.28,0.42 -3.95,-0.24 -5,-2z" fill="#f4d56b" id="svg_61"/>
  <path d="m558.5,720.5c-2.12,2.15 -4.78,3.15 -8,3c2.44,-1.37 5.1,-2.37 8,-3z" fill="#ebce65" id="svg_62" opacity="0.92"/>
  <path d="m544.5,725.5c-3.13,2.49 -6.79,3.82 -11,4c3.44,-1.7 7.11,-3.04 11,-4z" fill="#f3d562" id="svg_63" opacity="0.95"/>
  <path class="H" d="m387.5,730.5c2.57,0.22 4.9,0.89 7,2c-2.03,0.16 -4.03,0 -6,-0.5c-0.56,-0.38 -0.89,-0.88 -1,-1.5z" fill="#ecd16c" id="svg_64"/>
  <path d="m395.5,732.5c3.9,0.55 7.56,1.55 11,3c-3.41,0.04 -6.74,-0.46 -10,-1.5c-0.56,-0.38 -0.89,-0.88 -1,-1.5z" fill="#f0d266" id="svg_65" opacity="0.95"/>
  <path class="H" d="m409.5,735.5c3.19,0.36 6.19,1.02 9,2c-3.38,0.43 -6.38,-0.24 -9,-2z" fill="#eed473" id="svg_66"/>
  <path d="m514.5,734.5c-0.42,0.72 -1.08,1.22 -2,1.5c-6.61,1.38 -13.27,2.21 -20,2.5c7.13,-1.75 14.46,-3.08 22,-4z" fill="#efce51" id="svg_67"/>
  <path d="m358.5,749.5c2.2,-0.38 3.87,0.29 5,2c-1.9,-0.3 -3.57,-0.96 -5,-2z" fill="#ead27b" id="svg_68" opacity="0.94"/>
  <path class="I" d="m364.5,751.5c3.42,0.03 6.42,1.03 9,3c-3.29,-0.43 -6.29,-1.43 -9,-3z" fill="#f4de90" id="svg_69"/>
  <path class="M" d="m385.5,757.5c2.93,0.07 5.6,0.73 8,2c-3,0.21 -5.66,-0.46 -8,-2z" fill="#e9d381" id="svg_70"/>
  <path class="M" d="m393.5,759.5c3.28,-0.08 6.28,0.59 9,2c-3.28,0.08 -6.28,-0.59 -9,-2z" fill="#f5df8e" id="svg_71"/>
 </g>
</svg>