<?xml version="1.0" encoding="UTF-8"?>
<!DOCTYPE svg PUBLIC "-//W3C//DTD SVG 1.1//EN" "http://www.w3.org/Graphics/SVG/1.1/DTD/svg11.dtd">
<svg xmlns="http://www.w3.org/2000/svg" version="1.1" width="908px" height="603px" style="shape-rendering:geometricPrecision; text-rendering:geometricPrecision; image-rendering:optimizeQuality; fill-rule:evenodd; clip-rule:evenodd" xmlns:xlink="http://www.w3.org/1999/xlink">
<g><path style="opacity:1" fill="#eec218" d="M 426.5,-0.5 C 446.5,-0.5 466.5,-0.5 486.5,-0.5C 529.056,4.46253 569.056,17.4625 606.5,38.5C 606.821,40.0481 607.821,40.7148 609.5,40.5C 611.153,40.6596 612.486,41.3263 613.5,42.5C 614.035,44.4456 615.368,45.4456 617.5,45.5C 618.492,45.3284 619.158,45.6618 619.5,46.5C 619.973,47.9063 620.973,48.573 622.5,48.5C 623.492,48.3284 624.158,48.6618 624.5,49.5C 625.035,51.4456 626.368,52.4456 628.5,52.5C 629.035,54.4456 630.368,55.4456 632.5,55.5C 634.404,55.7376 635.738,56.7376 636.5,58.5C 636.973,59.9063 637.973,60.573 639.5,60.5C 640.035,62.4456 641.368,63.4456 643.5,63.5C 644.833,64.5 646.167,65.5 647.5,66.5C 647.5,67.8333 648.167,68.5 649.5,68.5C 650.5,68.8333 651.167,69.5 651.5,70.5C 652.262,72.2624 653.596,73.2624 655.5,73.5C 657.5,75.1667 659.5,76.8333 661.5,78.5C 664.77,83.4397 668.77,87.7731 673.5,91.5C 675.167,92.5 676.5,93.8333 677.5,95.5C 678.757,98.4274 680.757,100.761 683.5,102.5C 684.419,105.089 686.086,107.089 688.5,108.5C 689.08,110.749 690.413,112.415 692.5,113.5C 693.08,115.749 694.413,117.415 696.5,118.5C 696.427,120.027 697.094,121.027 698.5,121.5C 698.738,123.404 699.738,124.738 701.5,125.5C 701.738,127.404 702.738,128.738 704.5,129.5C 705.338,129.842 705.672,130.508 705.5,131.5C 705.427,133.027 706.094,134.027 707.5,134.5C 707.427,136.027 708.094,137.027 709.5,137.5C 709.427,139.027 710.094,140.027 711.5,140.5C 711.427,142.027 712.094,143.027 713.5,143.5C 714.674,144.514 715.34,145.847 715.5,147.5C 715.427,149.027 716.094,150.027 717.5,150.5C 718.674,151.514 719.34,152.847 719.5,154.5C 719.427,156.027 720.094,157.027 721.5,157.5C 728.504,169.178 734.171,181.511 738.5,194.5C 738.584,197.327 739.25,199.994 740.5,202.5C 731.325,203.822 721.992,203.822 712.5,202.5C 710.918,200.423 709.918,198.09 709.5,195.5C 709.923,193.219 709.256,191.552 707.5,190.5C 702.516,181.201 697.516,171.868 692.5,162.5C 692.034,160.799 692.034,159.299 692.5,158C 690.935,156.588 689.269,155.421 687.5,154.5C 684.474,149.816 681.474,145.149 678.5,140.5C 678.371,137.13 676.705,135.13 673.5,134.5C 673.5,134.167 673.5,133.833 673.5,133.5C 673.512,130.858 672.179,129.525 669.5,129.5C 669.167,128.833 668.833,128.167 668.5,127.5C 668.512,124.858 667.179,123.525 664.5,123.5C 663.167,121.833 661.833,120.167 660.5,118.5C 660.167,116.167 658.833,114.833 656.5,114.5C 651.833,109.5 647.167,104.5 642.5,99.5C 641.089,97.086 639.089,95.4194 636.5,94.5C 635.5,94.1667 634.833,93.5 634.5,92.5C 633.738,90.7376 632.404,89.7376 630.5,89.5C 629.5,89.1667 628.833,88.5 628.5,87.5C 627.738,85.7376 626.404,84.7376 624.5,84.5C 623.415,82.4131 621.749,81.0798 619.5,80.5C 619.027,79.0937 618.027,78.427 616.5,78.5C 614.596,78.2624 613.262,77.2624 612.5,75.5C 612.027,74.0937 611.027,73.427 609.5,73.5C 607.566,72.8897 605.899,71.8897 604.5,70.5C 604.027,69.0937 603.027,68.427 601.5,68.5C 600.656,66.2407 598.989,65.2407 596.5,65.5C 582.592,57.7131 568.259,50.7131 553.5,44.5C 553.586,43.5041 553.252,42.6708 552.5,42C 549.883,41.1785 547.216,40.6785 544.5,40.5C 541.145,40.3104 538.145,39.3104 535.5,37.5C 533.485,36.0762 531.152,35.4095 528.5,35.5C 488.146,26.147 447.479,24.4803 406.5,30.5C 402.103,30.4246 397.77,30.9246 393.5,32C 392.944,32.3826 392.611,32.8826 392.5,33.5C 301.159,59.0018 236.826,115.335 199.5,202.5C 190.548,203.639 181.548,203.805 172.5,203C 171.919,202.107 171.585,201.107 171.5,200C 176.703,184.764 183.37,170.264 191.5,156.5C 192.906,156.027 193.573,155.027 193.5,153.5C 195.931,151.954 197.264,149.621 197.5,146.5C 199.408,145.514 200.408,143.848 200.5,141.5C 200.328,140.508 200.662,139.842 201.5,139.5C 202.906,139.027 203.573,138.027 203.5,136.5C 204.906,136.027 205.573,135.027 205.5,133.5C 206.906,133.027 207.573,132.027 207.5,130.5C 208.906,130.027 209.573,129.027 209.5,127.5C 211.262,126.738 212.262,125.404 212.5,123.5C 214.262,122.738 215.262,121.404 215.5,119.5C 217.262,118.738 218.262,117.404 218.5,115.5C 220.587,114.415 221.92,112.749 222.5,110.5C 224.587,109.415 225.92,107.749 226.5,105.5C 228.587,104.415 229.92,102.749 230.5,100.5C 230.833,99.5 231.5,98.8333 232.5,98.5C 240.5,91.1667 248.167,83.5 255.5,75.5C 258.764,73.9059 261.431,71.5725 263.5,68.5C 266.089,67.5806 268.089,65.914 269.5,63.5C 271.404,63.2624 272.738,62.2624 273.5,60.5C 275.404,60.2624 276.738,59.2624 277.5,57.5C 279.404,57.2624 280.738,56.2624 281.5,54.5C 283.027,54.573 284.027,53.9063 284.5,52.5C 286.404,52.2624 287.738,51.2624 288.5,49.5C 290.027,49.573 291.027,48.9063 291.5,47.5C 291.842,46.6618 292.508,46.3284 293.5,46.5C 295.027,46.573 296.027,45.9063 296.5,44.5C 298.027,44.573 299.027,43.9063 299.5,42.5C 299.842,41.6618 300.508,41.3284 301.5,41.5C 303.027,41.573 304.027,40.9063 304.5,39.5C 304.842,38.6618 305.508,38.3284 306.5,38.5C 308.027,38.573 309.027,37.9063 309.5,36.5C 315.849,32.6588 322.516,29.3255 329.5,26.5C 331.698,26.8799 333.365,26.2132 334.5,24.5C 336.509,22.9348 338.843,21.9348 341.5,21.5C 343.698,21.8799 345.365,21.2132 346.5,19.5C 348.698,19.8799 350.365,19.2132 351.5,17.5C 354.215,15.9281 357.215,14.9281 360.5,14.5C 363.916,14.4725 366.916,13.4725 369.5,11.5C 369.833,11.5 370.167,11.5 370.5,11.5C 373.916,11.4725 376.916,10.4725 379.5,8.5C 381.042,7.69929 382.708,7.36596 384.5,7.5C 387.428,7.43487 390.095,6.7682 392.5,5.5C 403.605,2.10462 414.938,0.104621 426.5,-0.5 Z"/></g>
<g><path style="opacity:0.827" fill="#ead278" d="M 392.5,5.5 C 390.095,6.7682 387.428,7.43487 384.5,7.5C 386.838,5.96046 389.505,5.29379 392.5,5.5 Z"/></g>
<g><path style="opacity:0.91" fill="#efd57a" d="M 379.5,8.5 C 376.916,10.4725 373.916,11.4725 370.5,11.5C 373.215,9.92809 376.215,8.92809 379.5,8.5 Z"/></g>
<g><path style="opacity:0.847" fill="#ecd581" d="M 369.5,11.5 C 366.916,13.4725 363.916,14.4725 360.5,14.5C 363.215,12.9281 366.215,11.9281 369.5,11.5 Z"/></g>
<g><path style="opacity:0.969" fill="#f1d77d" d="M 351.5,17.5 C 350.365,19.2132 348.698,19.8799 346.5,19.5C 347.93,18.4625 349.597,17.7959 351.5,17.5 Z"/></g>
<g><path style="opacity:0.961" fill="#f8de81" d="M 346.5,19.5 C 345.365,21.2132 343.698,21.8799 341.5,21.5C 342.93,20.4625 344.597,19.7959 346.5,19.5 Z"/></g>
<g><path style="opacity:0.961" fill="#ebd279" d="M 334.5,24.5 C 333.365,26.2132 331.698,26.8799 329.5,26.5C 330.93,25.4625 332.597,24.7959 334.5,24.5 Z"/></g>
<g><path style="opacity:0.988" fill="#f1d25b" d="M 406.5,30.5 C 402.006,31.7339 397.339,32.7339 392.5,33.5C 392.611,32.8826 392.944,32.3826 393.5,32C 397.77,30.9246 402.103,30.4246 406.5,30.5 Z"/></g>
<g><path style="opacity:0.929" fill="#eacf65" d="M 528.5,35.5 C 531.152,35.4095 533.485,36.0762 535.5,37.5C 532.848,37.5905 530.515,36.9238 528.5,35.5 Z"/></g>
<g><path style="opacity:0.576" fill="#e4d395" d="M 309.5,36.5 C 309.027,37.9063 308.027,38.573 306.5,38.5C 306.973,37.0937 307.973,36.427 309.5,36.5 Z"/></g>
<g><path style="opacity:0.961" fill="#f3d97d" d="M 606.5,38.5 C 607.71,38.9321 608.71,39.5987 609.5,40.5C 607.821,40.7148 606.821,40.0481 606.5,38.5 Z"/></g>
<g><path style="opacity:0.667" fill="#f9e497" d="M 304.5,39.5 C 304.027,40.9063 303.027,41.573 301.5,41.5C 301.973,40.0937 302.973,39.427 304.5,39.5 Z"/></g>
<g><path style="opacity:1" fill="#efcd51" d="M 544.5,40.5 C 547.216,40.6785 549.883,41.1785 552.5,42C 553.252,42.6708 553.586,43.5041 553.5,44.5C 550.256,43.5371 547.256,42.2038 544.5,40.5 Z"/></g>
<g><path style="opacity:0.647" fill="#e5d28a" d="M 299.5,42.5 C 299.027,43.9063 298.027,44.573 296.5,44.5C 296.973,43.0937 297.973,42.427 299.5,42.5 Z"/></g>
<g><path style="opacity:0.91" fill="#e7d07d" d="M 613.5,42.5 C 615.23,43.0256 616.564,44.0256 617.5,45.5C 615.368,45.4456 614.035,44.4456 613.5,42.5 Z"/></g>
<g><path style="opacity:0.725" fill="#e6d07e" d="M 296.5,44.5 C 296.027,45.9063 295.027,46.573 293.5,46.5C 293.973,45.0937 294.973,44.427 296.5,44.5 Z"/></g>
<g><path style="opacity:0.231" fill="#e6d9a8" d="M 619.5,46.5 C 621.027,46.427 622.027,47.0937 622.5,48.5C 620.973,48.573 619.973,47.9063 619.5,46.5 Z"/></g>
<g><path style="opacity:0.576" fill="#e4d393" d="M 291.5,47.5 C 291.027,48.9063 290.027,49.573 288.5,49.5C 288.973,48.0937 289.973,47.427 291.5,47.5 Z"/></g>
<g><path style="opacity:0.545" fill="#e7d48e" d="M 288.5,49.5 C 287.738,51.2624 286.404,52.2624 284.5,52.5C 285.262,50.7376 286.596,49.7376 288.5,49.5 Z"/></g>
<g><path style="opacity:0.808" fill="#e6d38f" d="M 624.5,49.5 C 626.23,50.0256 627.564,51.0256 628.5,52.5C 626.368,52.4456 625.035,51.4456 624.5,49.5 Z"/></g>
<g><path style="opacity:0.678" fill="#f8e28f" d="M 284.5,52.5 C 284.027,53.9063 283.027,54.573 281.5,54.5C 281.973,53.0937 282.973,52.427 284.5,52.5 Z"/></g>
<g><path style="opacity:0.969" fill="#f4db84" d="M 628.5,52.5 C 630.23,53.0256 631.564,54.0256 632.5,55.5C 630.368,55.4456 629.035,54.4456 628.5,52.5 Z"/></g>
<g><path style="opacity:0.635" fill="#ecd786" d="M 281.5,54.5 C 280.738,56.2624 279.404,57.2624 277.5,57.5C 278.262,55.7376 279.596,54.7376 281.5,54.5 Z"/></g>
<g><path style="opacity:0.596" fill="#f9e391" d="M 277.5,57.5 C 276.738,59.2624 275.404,60.2624 273.5,60.5C 274.262,58.7376 275.596,57.7376 277.5,57.5 Z"/></g>
<g><path style="opacity:0.031" fill="#f7eab9" d="M 636.5,58.5 C 638.027,58.427 639.027,59.0937 639.5,60.5C 637.973,60.573 636.973,59.9063 636.5,58.5 Z"/></g>
<g><path style="opacity:0.596" fill="#f9e392" d="M 273.5,60.5 C 272.738,62.2624 271.404,63.2624 269.5,63.5C 270.262,61.7376 271.596,60.7376 273.5,60.5 Z"/></g>
<g><path style="opacity:0.537" fill="#fae69d" d="M 639.5,60.5 C 641.23,61.0256 642.564,62.0256 643.5,63.5C 641.368,63.4456 640.035,62.4456 639.5,60.5 Z"/></g>
<g><path style="opacity:1" fill="#f4d565" d="M 596.5,65.5 C 598.989,65.2407 600.656,66.2407 601.5,68.5C 599.566,67.8897 597.899,66.8897 596.5,65.5 Z"/></g>
<g><path style="opacity:0.737" fill="#f8e189" d="M 269.5,63.5 C 268.089,65.914 266.089,67.5806 263.5,68.5C 264.911,66.086 266.911,64.4194 269.5,63.5 Z"/></g>
<g><path style="opacity:0.596" fill="#fbe9a7" d="M 647.5,66.5 C 648.5,66.8333 649.167,67.5 649.5,68.5C 648.167,68.5 647.5,67.8333 647.5,66.5 Z"/></g>
<g><path style="opacity:0.455" fill="#f9e79f" d="M 601.5,68.5 C 603.027,68.427 604.027,69.0937 604.5,70.5C 602.973,70.573 601.973,69.9063 601.5,68.5 Z"/></g>
<g><path style="opacity:0.012" fill="#f9ecbc" d="M 651.5,70.5 C 653.404,70.7376 654.738,71.7376 655.5,73.5C 653.596,73.2624 652.262,72.2624 651.5,70.5 Z"/></g>
<g><path style="opacity:0.737" fill="#f4db7d" d="M 263.5,68.5 C 261.431,71.5725 258.764,73.9059 255.5,75.5C 257.569,72.4275 260.236,70.0941 263.5,68.5 Z"/></g>
<g><path style="opacity:0.635" fill="#f8df81" d="M 609.5,73.5 C 611.027,73.427 612.027,74.0937 612.5,75.5C 610.973,75.573 609.973,74.9063 609.5,73.5 Z"/></g>
<g><path style="opacity:1" fill="#eec10e" d="M 488.5,245.5 C 487.199,246.884 487.199,248.384 488.5,250C 519.498,250.5 550.498,250.667 581.5,250.5C 581.5,252.167 581.5,253.833 581.5,255.5C 514.619,345.922 446.285,435.255 376.5,523.5C 374.744,522.448 374.077,520.781 374.5,518.5C 374.232,516.901 374.566,515.568 375.5,514.5C 376.924,512.485 377.59,510.152 377.5,507.5C 377.232,505.901 377.566,504.568 378.5,503.5C 379.924,501.485 380.59,499.152 380.5,496.5C 380.232,494.901 380.566,493.568 381.5,492.5C 382.924,490.485 383.59,488.152 383.5,485.5C 383.232,483.901 383.566,482.568 384.5,481.5C 385.924,479.485 386.59,477.152 386.5,474.5C 387.924,472.485 388.59,470.152 388.5,467.5C 388.232,465.901 388.566,464.568 389.5,463.5C 390.924,461.485 391.59,459.152 391.5,456.5C 391.232,454.901 391.566,453.568 392.5,452.5C 393.924,450.485 394.59,448.152 394.5,445.5C 394.232,443.901 394.566,442.568 395.5,441.5C 396.924,439.485 397.59,437.152 397.5,434.5C 398.924,432.485 399.59,430.152 399.5,427.5C 399.232,425.901 399.566,424.568 400.5,423.5C 401.924,421.485 402.59,419.152 402.5,416.5C 402.232,414.901 402.566,413.568 403.5,412.5C 404.924,410.485 405.59,408.152 405.5,405.5C 405.232,403.901 405.566,402.568 406.5,401.5C 407.924,399.485 408.59,397.152 408.5,394.5C 408.232,392.901 408.566,391.568 409.5,390.5C 410.924,388.485 411.59,386.152 411.5,383.5C 412.924,381.485 413.59,379.152 413.5,376.5C 413.232,374.901 413.566,373.568 414.5,372.5C 415.924,370.485 416.59,368.152 416.5,365.5C 416.232,363.901 416.566,362.568 417.5,361.5C 418.924,359.485 419.59,357.152 419.5,354.5C 419.5,353.833 419.5,353.167 419.5,352.5C 420.791,351.458 420.791,350.292 419.5,349C 388.168,348.5 356.835,348.333 325.5,348.5C 324.402,347.399 324.235,346.066 325,344.5C 326.617,342.237 328.45,340.237 330.5,338.5C 331.906,338.027 332.573,337.027 332.5,335.5C 334.458,332.208 336.791,329.208 339.5,326.5C 341.587,325.415 342.92,323.749 343.5,321.5C 345.738,316.929 348.738,312.929 352.5,309.5C 355.158,308.349 356.825,306.349 357.5,303.5C 357.427,301.973 358.094,300.973 359.5,300.5C 361.587,299.415 362.92,297.749 363.5,295.5C 364.906,295.027 365.573,294.027 365.5,292.5C 375.26,279.311 385.26,266.311 395.5,253.5C 397.587,252.415 398.92,250.749 399.5,248.5C 399.738,246.596 400.738,245.262 402.5,244.5C 404.262,243.738 405.262,242.404 405.5,240.5C 407.262,239.738 408.262,238.404 408.5,236.5C 410.262,235.738 411.262,234.404 411.5,232.5C 412.604,230.611 413.937,228.945 415.5,227.5C 417.587,226.415 418.92,224.749 419.5,222.5C 419.738,220.596 420.738,219.262 422.5,218.5C 424.587,217.415 425.92,215.749 426.5,213.5C 428.016,210.467 430.016,207.8 432.5,205.5C 434.587,204.415 435.92,202.749 436.5,200.5C 440.016,194.8 444.016,189.467 448.5,184.5C 450.262,183.738 451.262,182.404 451.5,180.5C 453.262,179.738 454.262,178.404 454.5,176.5C 456.587,175.415 457.92,173.749 458.5,171.5C 458.738,169.596 459.738,168.262 461.5,167.5C 463.262,166.738 464.262,165.404 464.5,163.5C 466.587,162.415 467.92,160.749 468.5,158.5C 470.111,154.949 472.444,151.949 475.5,149.5C 476.906,149.027 477.573,148.027 477.5,146.5C 479.587,145.415 480.92,143.749 481.5,141.5C 483.587,140.415 484.92,138.749 485.5,136.5C 489.016,130.8 493.016,125.467 497.5,120.5C 499.262,119.738 500.262,118.404 500.5,116.5C 502.587,115.415 503.92,113.749 504.5,111.5C 506.016,108.467 508.016,105.8 510.5,103.5C 512.587,102.415 513.92,100.749 514.5,98.5C 514.738,96.5956 515.738,95.2623 517.5,94.5C 519.587,93.4154 520.92,91.7488 521.5,89.5C 524.493,83.5095 528.827,78.8428 534.5,75.5C 520.154,132.521 504.821,189.188 488.5,245.5 Z"/></g>
<g><path style="opacity:0.647" fill="#f3da7d" d="M 616.5,78.5 C 618.027,78.427 619.027,79.0937 619.5,80.5C 617.973,80.573 616.973,79.9063 616.5,78.5 Z"/></g>
<g><path style="opacity:0.424" fill="#f9ebb6" d="M 661.5,78.5 C 666.23,82.2269 670.23,86.5603 673.5,91.5C 668.77,87.7731 664.77,83.4397 661.5,78.5 Z"/></g>
<g><path style="opacity:0.706" fill="#f2dc89" d="M 255.5,75.5 C 248.167,83.5 240.5,91.1667 232.5,98.5C 232.369,97.7611 232.536,97.0944 233,96.5C 240.089,88.9061 247.589,81.9061 255.5,75.5 Z"/></g>
<g><path style="opacity:0.635" fill="#ead486" d="M 619.5,80.5 C 621.749,81.0798 623.415,82.4131 624.5,84.5C 622.251,83.9202 620.585,82.5869 619.5,80.5 Z"/></g>
<g><path style="opacity:0.847" fill="#e7d07a" d="M 624.5,84.5 C 626.404,84.7376 627.738,85.7376 628.5,87.5C 626.596,87.2624 625.262,86.2624 624.5,84.5 Z"/></g>
<g><path style="opacity:0.698" fill="#e6d391" d="M 630.5,89.5 C 632.404,89.7376 633.738,90.7376 634.5,92.5C 632.596,92.2624 631.262,91.2624 630.5,89.5 Z"/></g>
<g><path style="opacity:0.678" fill="#e7cf76" d="M 521.5,89.5 C 520.92,91.7488 519.587,93.4154 517.5,94.5C 518.08,92.2512 519.413,90.5846 521.5,89.5 Z"/></g>
<g><path style="opacity:0.757" fill="#e8d48c" d="M 636.5,94.5 C 639.089,95.4194 641.089,97.086 642.5,99.5C 639.911,98.5806 637.911,96.914 636.5,94.5 Z"/></g>
<g><path style="opacity:0.82" fill="#fae598" d="M 677.5,95.5 C 680.243,97.2393 682.243,99.5726 683.5,102.5C 680.757,100.761 678.757,98.4274 677.5,95.5 Z"/></g>
<g><path style="opacity:0.678" fill="#e7cf76" d="M 514.5,98.5 C 513.92,100.749 512.587,102.415 510.5,103.5C 511.08,101.251 512.413,99.5846 514.5,98.5 Z"/></g>
<g><path style="opacity:0.514" fill="#f3e19c" d="M 230.5,100.5 C 229.92,102.749 228.587,104.415 226.5,105.5C 227.08,103.251 228.413,101.585 230.5,100.5 Z"/></g>
<g><path style="opacity:0.89" fill="#f4dd8a" d="M 683.5,102.5 C 685.914,103.911 687.581,105.911 688.5,108.5C 686.086,107.089 684.419,105.089 683.5,102.5 Z"/></g>
<g><path style="opacity:1" fill="#eec215" d="M 291.5,283.5 C 289.967,287.896 289.3,292.563 289.5,297.5C 289.436,303.726 290.103,309.726 291.5,315.5C 293.037,324.517 294.703,333.517 296.5,342.5C 296.804,345.522 297.304,348.522 298,351.5C 298.708,352.381 299.542,353.047 300.5,353.5C 303.906,361.977 307.573,370.31 311.5,378.5C 311.241,380.989 312.241,382.656 314.5,383.5C 315.674,384.514 316.34,385.847 316.5,387.5C 316.738,389.404 317.738,390.738 319.5,391.5C 319.427,393.027 320.094,394.027 321.5,394.5C 328.493,402.826 335.826,410.826 343.5,418.5C 343.525,421.179 344.858,422.512 347.5,422.5C 352.148,426.143 356.815,429.81 361.5,433.5C 362.449,436.126 362.449,438.792 361.5,441.5C 359.288,444.321 358.288,447.655 358.5,451.5C 357.37,456.224 356.036,460.891 354.5,465.5C 352.901,466.562 351.234,466.562 349.5,465.5C 349.027,464.094 348.027,463.427 346.5,463.5C 345.508,463.672 344.842,463.338 344.5,462.5C 343.738,460.738 342.404,459.738 340.5,459.5C 340.027,458.094 339.027,457.427 337.5,457.5C 335.091,456.299 333.091,454.633 331.5,452.5C 331.027,451.094 330.027,450.427 328.5,450.5C 327.5,450.167 326.833,449.5 326.5,448.5C 325.089,446.086 323.089,444.419 320.5,443.5C 305.913,430.916 293.913,416.25 284.5,399.5C 284.715,397.821 284.048,396.821 282.5,396.5C 263.092,362.142 254.758,325.142 257.5,285.5C 258.884,280.056 259.55,274.389 259.5,268.5C 259.652,264.076 260.319,259.743 261.5,255.5C 263.163,253.562 263.829,251.228 263.5,248.5C 263.5,248.167 263.5,247.833 263.5,247.5C 265.806,243.915 267.139,239.915 267.5,235.5C 267.5,235.167 267.5,234.833 267.5,234.5C 269.213,233.365 269.88,231.698 269.5,229.5C 271.322,223.864 273.655,218.531 276.5,213.5C 277.906,213.027 278.573,212.027 278.5,210.5C 278.66,208.847 279.326,207.514 280.5,206.5C 282.408,205.514 283.408,203.848 283.5,201.5C 284.906,201.027 285.573,200.027 285.5,198.5C 285.328,197.508 285.662,196.842 286.5,196.5C 287.906,196.027 288.573,195.027 288.5,193.5C 289.906,193.027 290.573,192.027 290.5,190.5C 292.262,189.738 293.262,188.404 293.5,186.5C 293.738,184.596 294.738,183.262 296.5,182.5C 298.587,181.415 299.92,179.749 300.5,177.5C 302.262,176.738 303.262,175.404 303.5,173.5C 305.942,170.271 308.608,167.271 311.5,164.5C 314.167,163.833 315.833,162.167 316.5,159.5C 320.436,157.234 323.769,154.234 326.5,150.5C 330.587,146.078 335.254,142.411 340.5,139.5C 342.404,139.262 343.738,138.262 344.5,136.5C 346.205,134.808 348.205,133.475 350.5,132.5C 352.027,132.573 353.027,131.906 353.5,130.5C 355.181,128.992 357.181,127.992 359.5,127.5C 361.848,127.408 363.514,126.408 364.5,124.5C 366.649,123.264 368.982,122.264 371.5,121.5C 375.165,121.498 378.165,120.165 380.5,117.5C 383.716,117.655 386.383,116.655 388.5,114.5C 390.515,113.076 392.848,112.41 395.5,112.5C 398.152,112.59 400.485,111.924 402.5,110.5C 423.299,104.403 444.633,102.236 466.5,104C 467.554,105.388 467.72,106.888 467,108.5C 460.102,118.454 452.602,127.954 444.5,137C 385.091,143.596 340.258,172.43 310,223.5C 300.509,242.474 294.342,262.474 291.5,283.5 Z"/></g>
<g><path style="opacity:0.627" fill="#f9e28e" d="M 226.5,105.5 C 225.92,107.749 224.587,109.415 222.5,110.5C 223.08,108.251 224.413,106.585 226.5,105.5 Z"/></g>
<g><path style="opacity:0.878" fill="#f2db88" d="M 688.5,108.5 C 690.587,109.585 691.92,111.251 692.5,113.5C 690.413,112.415 689.08,110.749 688.5,108.5 Z"/></g>
<g><path style="opacity:0.831" fill="#f2d979" d="M 402.5,110.5 C 400.485,111.924 398.152,112.59 395.5,112.5C 397.515,111.076 399.848,110.41 402.5,110.5 Z"/></g>
<g><path style="opacity:0.584" fill="#f8e294" d="M 222.5,110.5 C 221.92,112.749 220.587,114.415 218.5,115.5C 219.08,113.251 220.413,111.585 222.5,110.5 Z"/></g>
<g><path style="opacity:0.608" fill="#f2db84" d="M 504.5,111.5 C 503.92,113.749 502.587,115.415 500.5,116.5C 501.08,114.251 502.413,112.585 504.5,111.5 Z"/></g>
<g><path style="opacity:0.557" fill="#e4d5a0" d="M 656.5,114.5 C 658.833,114.833 660.167,116.167 660.5,118.5C 658.833,117.5 657.5,116.167 656.5,114.5 Z"/></g>
<g><path style="opacity:0.847" fill="#f8e087" d="M 218.5,115.5 C 218.262,117.404 217.262,118.738 215.5,119.5C 215.738,117.596 216.738,116.262 218.5,115.5 Z"/></g>
<g><path style="opacity:0.965" fill="#eace65" d="M 388.5,114.5 C 386.383,116.655 383.716,117.655 380.5,117.5C 382.89,115.98 385.557,114.98 388.5,114.5 Z"/></g>
<g><path style="opacity:0.816" fill="#ead176" d="M 500.5,116.5 C 500.262,118.404 499.262,119.738 497.5,120.5C 497.738,118.596 498.738,117.262 500.5,116.5 Z"/></g>
<g><path style="opacity:0.365" fill="#f7e49e" d="M 692.5,113.5 C 694.587,114.585 695.92,116.251 696.5,118.5C 694.413,117.415 693.08,115.749 692.5,113.5 Z"/></g>
<g><path style="opacity:1" fill="#f0cf5a" d="M 380.5,117.5 C 378.165,120.165 375.165,121.498 371.5,121.5C 374.088,119.408 377.088,118.075 380.5,117.5 Z"/></g>
<g><path style="opacity:0.514" fill="#e8d58b" d="M 696.5,118.5 C 697.906,118.973 698.573,119.973 698.5,121.5C 697.094,121.027 696.427,120.027 696.5,118.5 Z"/></g>
<g><path style="opacity:0.635" fill="#ecd686" d="M 215.5,119.5 C 215.262,121.404 214.262,122.738 212.5,123.5C 212.738,121.596 213.738,120.262 215.5,119.5 Z"/></g>
<g><path style="opacity:0.616" fill="#e6d183" d="M 698.5,121.5 C 700.262,122.262 701.262,123.596 701.5,125.5C 699.738,124.738 698.738,123.404 698.5,121.5 Z"/></g>
<g><path style="opacity:1" fill="#e9cd69" d="M 664.5,123.5 C 667.179,123.525 668.512,124.858 668.5,127.5C 666.833,126.5 665.5,125.167 664.5,123.5 Z"/></g>
<g><path style="opacity:0.506" fill="#fae7a0" d="M 212.5,123.5 C 212.262,125.404 211.262,126.738 209.5,127.5C 209.738,125.596 210.738,124.262 212.5,123.5 Z"/></g>
<g><path style="opacity:0.608" fill="#e7cf7a" d="M 364.5,124.5 C 363.514,126.408 361.848,127.408 359.5,127.5C 360.659,125.75 362.326,124.75 364.5,124.5 Z"/></g>
<g><path style="opacity:0.525" fill="#eddc9a" d="M 701.5,125.5 C 703.262,126.262 704.262,127.596 704.5,129.5C 702.738,128.738 701.738,127.404 701.5,125.5 Z"/></g>
<g><path style="opacity:0.416" fill="#e4d495" d="M 209.5,127.5 C 209.573,129.027 208.906,130.027 207.5,130.5C 207.427,128.973 208.094,127.973 209.5,127.5 Z"/></g>
<g><path style="opacity:1" fill="#eacb5f" d="M 669.5,129.5 C 672.179,129.525 673.512,130.858 673.5,133.5C 671.833,132.5 670.5,131.167 669.5,129.5 Z"/></g>
<g><path style="opacity:0.584" fill="#e5d28b" d="M 353.5,130.5 C 353.027,131.906 352.027,132.573 350.5,132.5C 350.973,131.094 351.973,130.427 353.5,130.5 Z"/></g>
<g><path style="opacity:0.392" fill="#e4d498" d="M 207.5,130.5 C 207.573,132.027 206.906,133.027 205.5,133.5C 205.427,131.973 206.094,130.973 207.5,130.5 Z"/></g>
<g><path style="opacity:1" fill="#f3d46b" d="M 558.5,133.5 C 556.379,133.325 554.379,133.659 552.5,134.5C 553.826,130.843 555.826,130.51 558.5,133.5 Z"/></g>
<g><path style="opacity:1" fill="#eec215" d="M 558.5,133.5 C 559.035,135.446 560.368,136.446 562.5,136.5C 563.5,137.167 564.5,137.833 565.5,138.5C 566.035,140.446 567.368,141.446 569.5,141.5C 571.754,142.415 573.754,143.748 575.5,145.5C 575.525,148.179 576.858,149.512 579.5,149.5C 580.5,150.167 581.5,150.833 582.5,151.5C 582.525,154.179 583.858,155.512 586.5,155.5C 591.5,159.833 596.167,164.5 600.5,169.5C 601.419,172.089 603.086,174.089 605.5,175.5C 606.419,178.089 608.086,180.089 610.5,181.5C 611.906,181.973 612.573,182.973 612.5,184.5C 612.738,186.404 613.738,187.738 615.5,188.5C 615.427,190.027 616.094,191.027 617.5,191.5C 617.427,193.027 618.094,194.027 619.5,194.5C 619.738,196.404 620.738,197.738 622.5,198.5C 624.341,200.849 625.674,203.515 626.5,206.5C 626.427,208.027 627.094,209.027 628.5,209.5C 632.626,216.759 635.959,224.425 638.5,232.5C 639.194,237.915 640.86,242.915 643.5,247.5C 659.511,307.264 650.011,362.598 615,413.5C 611.635,417.693 608.135,421.693 604.5,425.5C 603.094,425.973 602.427,426.973 602.5,428.5C 560.728,476.041 508.061,498.374 444.5,495.5C 443.791,494.596 442.791,494.263 441.5,494.5C 441.5,493.5 441.5,492.5 441.5,491.5C 442.08,489.251 443.413,487.585 445.5,486.5C 446.906,486.027 447.573,485.027 447.5,483.5C 449.587,482.415 450.92,480.749 451.5,478.5C 453.262,477.738 454.262,476.404 454.5,474.5C 455.906,474.027 456.573,473.027 456.5,471.5C 458.285,467.88 460.952,465.047 464.5,463C 492.597,459.47 518.597,450.303 542.5,435.5C 544.027,435.573 545.027,434.906 545.5,433.5C 547.027,433.573 548.027,432.906 548.5,431.5C 550.404,431.262 551.738,430.262 552.5,428.5C 554.749,427.92 556.415,426.587 557.5,424.5C 560.089,423.581 562.089,421.914 563.5,419.5C 566.833,415.5 570.5,411.833 574.5,408.5C 576.914,407.089 578.581,405.089 579.5,402.5C 580.8,399.568 582.8,397.234 585.5,395.5C 586.906,395.027 587.573,394.027 587.5,392.5C 588.906,392.027 589.573,391.027 589.5,389.5C 590.906,389.027 591.573,388.027 591.5,386.5C 592.906,386.027 593.573,385.027 593.5,383.5C 594.643,383.092 595.643,382.425 596.5,381.5C 599.691,376.128 602.024,370.461 603.5,364.5C 603.796,362.597 604.463,360.93 605.5,359.5C 607.834,357.824 608.834,355.491 608.5,352.5C 616.694,325.646 618.694,298.313 614.5,270.5C 614.662,268.473 614.495,266.473 614,264.5C 613.617,263.944 613.117,263.611 612.5,263.5C 609.966,252.897 606.632,242.564 602.5,232.5C 602.536,229.539 601.536,227.206 599.5,225.5C 594.847,218.203 590.18,210.87 585.5,203.5C 585.371,200.13 583.705,198.13 580.5,197.5C 579.167,195.833 577.833,194.167 576.5,192.5C 576.512,189.858 575.179,188.525 572.5,188.5C 571.962,186.883 571.629,185.216 571.5,183.5C 570.167,183.5 568.833,183.5 567.5,183.5C 567.5,183.167 567.5,182.833 567.5,182.5C 567.027,181.094 566.027,180.427 564.5,180.5C 562.167,178.833 560.167,176.833 558.5,174.5C 557.415,172.413 555.749,171.08 553.5,170.5C 551.596,170.262 550.262,169.262 549.5,167.5C 548.738,165.738 547.404,164.738 545.5,164.5C 544.167,163.167 544.167,161.833 545.5,160.5C 546.924,158.485 547.59,156.152 547.5,153.5C 547.926,149.573 548.926,145.907 550.5,142.5C 551.924,140.485 552.59,138.152 552.5,135.5C 552.5,135.167 552.5,134.833 552.5,134.5C 554.379,133.659 556.379,133.325 558.5,133.5 Z"/></g>
<g><path style="opacity:0.486" fill="#e5d289" d="M 705.5,131.5 C 706.906,131.973 707.573,132.973 707.5,134.5C 706.094,134.027 705.427,133.027 705.5,131.5 Z"/></g>
<g><path style="opacity:0.831" fill="#edd78d" d="M 558.5,133.5 C 560.23,134.026 561.564,135.026 562.5,136.5C 560.368,136.446 559.035,135.446 558.5,133.5 Z"/></g>
<g><path style="opacity:0.373" fill="#f0e2a8" d="M 205.5,133.5 C 205.573,135.027 204.906,136.027 203.5,136.5C 203.427,134.973 204.094,133.973 205.5,133.5 Z"/></g>
<g><path style="opacity:0.961" fill="#f2d672" d="M 673.5,134.5 C 676.705,135.13 678.371,137.13 678.5,140.5C 676.844,138.54 675.177,136.54 673.5,134.5 Z"/></g>
<g><path style="opacity:0.416" fill="#f6e49e" d="M 707.5,134.5 C 708.906,134.973 709.573,135.973 709.5,137.5C 708.094,137.027 707.427,136.027 707.5,134.5 Z"/></g>
<g><path style="opacity:0.639" fill="#e8d17a" d="M 344.5,136.5 C 343.738,138.262 342.404,139.262 340.5,139.5C 341.262,137.738 342.596,136.738 344.5,136.5 Z"/></g>
<g><path style="opacity:0.345" fill="#e3d5a1" d="M 203.5,136.5 C 203.573,138.027 202.906,139.027 201.5,139.5C 201.427,137.973 202.094,136.973 203.5,136.5 Z"/></g>
<g><path style="opacity:0.898" fill="#e8cc5c" d="M 552.5,135.5 C 552.59,138.152 551.924,140.485 550.5,142.5C 550.41,139.848 551.076,137.515 552.5,135.5 Z"/></g>
<g><path style="opacity:0.702" fill="#f7dd7c" d="M 485.5,136.5 C 484.92,138.749 483.587,140.415 481.5,141.5C 482.08,139.251 483.413,137.585 485.5,136.5 Z"/></g>
<g><path style="opacity:0.875" fill="#e7d080" d="M 565.5,138.5 C 567.23,139.026 568.564,140.026 569.5,141.5C 567.368,141.446 566.035,140.446 565.5,138.5 Z"/></g>
<g><path style="opacity:0.416" fill="#e4d492" d="M 709.5,137.5 C 710.906,137.973 711.573,138.973 711.5,140.5C 710.094,140.027 709.427,139.027 709.5,137.5 Z"/></g>
<g><path style="opacity:0.314" fill="#e3d6a4" d="M 711.5,140.5 C 712.906,140.973 713.573,141.973 713.5,143.5C 712.094,143.027 711.427,142.027 711.5,140.5 Z"/></g>
<g><path style="opacity:0.631" fill="#ebd480" d="M 481.5,141.5 C 480.92,143.749 479.587,145.415 477.5,146.5C 478.08,144.251 479.413,142.585 481.5,141.5 Z"/></g>
<g><path style="opacity:1" fill="#f3d778" d="M 200.5,141.5 C 200.408,143.848 199.408,145.514 197.5,146.5C 197.75,144.326 198.75,142.659 200.5,141.5 Z"/></g>
<g><path style="opacity:0.769" fill="#f7de7e" d="M 477.5,146.5 C 477.573,148.027 476.906,149.027 475.5,149.5C 475.427,147.973 476.094,146.973 477.5,146.5 Z"/></g>
<g><path style="opacity:1" fill="#eacc65" d="M 575.5,145.5 C 577.167,146.5 578.5,147.833 579.5,149.5C 576.858,149.512 575.525,148.179 575.5,145.5 Z"/></g>
<g><path style="opacity:0.353" fill="#fae8a5" d="M 715.5,147.5 C 716.906,147.973 717.573,148.973 717.5,150.5C 716.094,150.027 715.427,149.027 715.5,147.5 Z"/></g>
<g><path style="opacity:1" fill="#ecce68" d="M 197.5,146.5 C 197.264,149.621 195.931,151.954 193.5,153.5C 194.079,150.669 195.412,148.336 197.5,146.5 Z"/></g>
<g><path style="opacity:1" fill="#eacb5e" d="M 582.5,151.5 C 584.167,152.5 585.5,153.833 586.5,155.5C 583.858,155.512 582.525,154.179 582.5,151.5 Z"/></g>
<g><path style="opacity:0.243" fill="#fbedb9" d="M 193.5,153.5 C 193.573,155.027 192.906,156.027 191.5,156.5C 191.427,154.973 192.094,153.973 193.5,153.5 Z"/></g>
<g><path style="opacity:0.843" fill="#f4d96e" d="M 547.5,153.5 C 547.59,156.152 546.924,158.485 545.5,160.5C 545.41,157.848 546.076,155.515 547.5,153.5 Z"/></g>
<g><path style="opacity:0.263" fill="#faecb4" d="M 719.5,154.5 C 720.906,154.973 721.573,155.973 721.5,157.5C 720.094,157.027 719.427,156.027 719.5,154.5 Z"/></g>
<g><path style="opacity:0.898" fill="#f5d96f" d="M 326.5,150.5 C 323.769,154.234 320.436,157.234 316.5,159.5C 319.231,155.766 322.564,152.766 326.5,150.5 Z"/></g>
<g><path style="opacity:1" fill="#f2d266" d="M 687.5,154.5 C 689.269,155.421 690.935,156.588 692.5,158C 692.034,159.299 692.034,160.799 692.5,162.5C 690.847,159.869 689.181,157.203 687.5,154.5 Z"/></g>
<g><path style="opacity:0.62" fill="#e8d17e" d="M 468.5,158.5 C 467.92,160.749 466.587,162.415 464.5,163.5C 465.08,161.251 466.413,159.585 468.5,158.5 Z"/></g>
<g><path style="opacity:0.867" fill="#f5d866" d="M 316.5,159.5 C 315.833,162.167 314.167,163.833 311.5,164.5C 312.833,162.5 314.5,160.833 316.5,159.5 Z"/></g>
<g><path style="opacity:0.792" fill="#e7cf76" d="M 464.5,163.5 C 464.262,165.404 463.262,166.738 461.5,167.5C 461.738,165.596 462.738,164.262 464.5,163.5 Z"/></g>
<g><path style="opacity:0.808" fill="#e7cf76" d="M 545.5,164.5 C 547.404,164.738 548.738,165.738 549.5,167.5C 547.596,167.262 546.262,166.262 545.5,164.5 Z"/></g>
<g><path style="opacity:0.831" fill="#e6d182" d="M 600.5,169.5 C 602.914,170.911 604.581,172.911 605.5,175.5C 603.086,174.089 601.419,172.089 600.5,169.5 Z"/></g>
<g><path style="opacity:0.639" fill="#e9d27c" d="M 553.5,170.5 C 555.749,171.08 557.415,172.413 558.5,174.5C 556.251,173.92 554.585,172.587 553.5,170.5 Z"/></g>
<g><path style="opacity:0.741" fill="#f6de86" d="M 303.5,173.5 C 303.262,175.404 302.262,176.738 300.5,177.5C 300.738,175.596 301.738,174.262 303.5,173.5 Z"/></g>
<g><path style="opacity:0.357" fill="#ecd688" d="M 458.5,171.5 C 457.92,173.749 456.587,175.415 454.5,176.5C 455.08,174.251 456.413,172.585 458.5,171.5 Z"/></g>
<g><path style="opacity:0.82" fill="#e6d182" d="M 605.5,175.5 C 607.914,176.911 609.581,178.911 610.5,181.5C 608.086,180.089 606.419,178.089 605.5,175.5 Z"/></g>
<g><path style="opacity:0.749" fill="#edd680" d="M 454.5,176.5 C 454.262,178.404 453.262,179.738 451.5,180.5C 451.738,178.596 452.738,177.262 454.5,176.5 Z"/></g>
<g><path style="opacity:0.686" fill="#f8df81" d="M 300.5,177.5 C 299.92,179.749 298.587,181.415 296.5,182.5C 297.08,180.251 298.413,178.585 300.5,177.5 Z"/></g>
<g><path style="opacity:0.627" fill="#f4de8e" d="M 564.5,180.5 C 566.027,180.427 567.027,181.094 567.5,182.5C 565.973,182.573 564.973,181.906 564.5,180.5 Z"/></g>
<g><path style="opacity:0.816" fill="#ead277" d="M 451.5,180.5 C 451.262,182.404 450.262,183.738 448.5,184.5C 448.738,182.596 449.738,181.262 451.5,180.5 Z"/></g>
<g><path style="opacity:1" fill="#eacb5e" d="M 567.5,183.5 C 568.833,183.5 570.167,183.5 571.5,183.5C 571.629,185.216 571.962,186.883 572.5,188.5C 571.053,186.597 569.386,184.93 567.5,183.5 Z"/></g>
<g><path style="opacity:0.675" fill="#ead175" d="M 612.5,184.5 C 614.262,185.262 615.262,186.596 615.5,188.5C 613.738,187.738 612.738,186.404 612.5,184.5 Z"/></g>
<g><path style="opacity:0.855" fill="#f7de80" d="M 293.5,186.5 C 293.262,188.404 292.262,189.738 290.5,190.5C 290.738,188.596 291.738,187.262 293.5,186.5 Z"/></g>
<g><path style="opacity:1" fill="#f3d364" d="M 572.5,188.5 C 575.179,188.525 576.512,189.858 576.5,192.5C 574.833,191.5 573.5,190.167 572.5,188.5 Z"/></g>
<g><path style="opacity:0.494" fill="#e6d181" d="M 615.5,188.5 C 616.906,188.973 617.573,189.973 617.5,191.5C 616.094,191.027 615.427,190.027 615.5,188.5 Z"/></g>
<g><path style="opacity:1" fill="#ebcd64" d="M 707.5,190.5 C 709.256,191.552 709.923,193.219 709.5,195.5C 708.069,194.22 707.402,192.553 707.5,190.5 Z"/></g>
<g><path style="opacity:0.482" fill="#e8d384" d="M 290.5,190.5 C 290.573,192.027 289.906,193.027 288.5,193.5C 288.427,191.973 289.094,190.973 290.5,190.5 Z"/></g>
<g><path style="opacity:0.494" fill="#f8e28d" d="M 617.5,191.5 C 618.906,191.973 619.573,192.973 619.5,194.5C 618.094,194.027 617.427,193.027 617.5,191.5 Z"/></g>
<g><path style="opacity:0.506" fill="#e6d17f" d="M 288.5,193.5 C 288.573,195.027 287.906,196.027 286.5,196.5C 286.427,194.973 287.094,193.973 288.5,193.5 Z"/></g>
<g><path style="opacity:0.529" fill="#f3de8f" d="M 619.5,194.5 C 621.262,195.262 622.262,196.596 622.5,198.5C 620.738,197.738 619.738,196.404 619.5,194.5 Z"/></g>
<g><path style="opacity:1" fill="#f0d57d" d="M 738.5,194.5 C 740.663,196.954 741.33,199.62 740.5,202.5C 739.25,199.994 738.584,197.327 738.5,194.5 Z"/></g>
<g><path style="opacity:0.976" fill="#ebce67" d="M 580.5,197.5 C 583.705,198.13 585.371,200.13 585.5,203.5C 583.844,201.54 582.177,199.54 580.5,197.5 Z"/></g>
<g><path style="opacity:0.549" fill="#e9d176" d="M 285.5,198.5 C 285.573,200.027 284.906,201.027 283.5,201.5C 283.427,199.973 284.094,198.973 285.5,198.5 Z"/></g>
<g><path style="opacity:0.69" fill="#f7dd7b" d="M 436.5,200.5 C 435.92,202.749 434.587,204.415 432.5,205.5C 433.08,203.251 434.413,201.585 436.5,200.5 Z"/></g>
<g><path style="opacity:1" fill="#eacb60" d="M 283.5,201.5 C 283.408,203.848 282.408,205.514 280.5,206.5C 280.75,204.326 281.75,202.659 283.5,201.5 Z"/></g>
<g><path style="opacity:0.373" fill="#e7d58d" d="M 626.5,206.5 C 627.906,206.973 628.573,207.973 628.5,209.5C 627.094,209.027 626.427,208.027 626.5,206.5 Z"/></g>
<g><path style="opacity:0.349" fill="#e9d893" d="M 278.5,210.5 C 278.573,212.027 277.906,213.027 276.5,213.5C 276.427,211.973 277.094,210.973 278.5,210.5 Z"/></g>
<g><path style="opacity:0.702" fill="#ebd173" d="M 426.5,213.5 C 425.92,215.749 424.587,217.415 422.5,218.5C 423.08,216.251 424.413,214.585 426.5,213.5 Z"/></g>
<g><path style="opacity:0.643" fill="#e8d17a" d="M 419.5,222.5 C 418.92,224.749 417.587,226.415 415.5,227.5C 416.08,225.251 417.413,223.585 419.5,222.5 Z"/></g>
<g><path style="opacity:0.831" fill="#f4d873" d="M 599.5,225.5 C 601.536,227.206 602.536,229.539 602.5,232.5C 600.707,230.574 599.707,228.241 599.5,225.5 Z"/></g>
<g><path style="opacity:0.843" fill="#edd682" d="M 269.5,229.5 C 269.88,231.698 269.213,233.365 267.5,234.5C 267.796,232.597 268.463,230.93 269.5,229.5 Z"/></g>
<g><path style="opacity:0.714" fill="#e6d183" d="M 411.5,232.5 C 411.262,234.404 410.262,235.738 408.5,236.5C 408.738,234.596 409.738,233.262 411.5,232.5 Z"/></g>
<g><path style="opacity:0.898" fill="#efd77f" d="M 638.5,232.5 C 640.739,237.216 642.405,242.216 643.5,247.5C 640.86,242.915 639.194,237.915 638.5,232.5 Z"/></g>
<g><path style="opacity:0.757" fill="#e9d37e" d="M 408.5,236.5 C 408.262,238.404 407.262,239.738 405.5,240.5C 405.738,238.596 406.738,237.262 408.5,236.5 Z"/></g>
<g><path style="opacity:0.945" fill="#f2da82" d="M 267.5,235.5 C 267.139,239.915 265.806,243.915 263.5,247.5C 264.261,243.216 265.595,239.216 267.5,235.5 Z"/></g>
<g><path style="opacity:0.792" fill="#e7cf76" d="M 405.5,240.5 C 405.262,242.404 404.262,243.738 402.5,244.5C 402.738,242.596 403.738,241.262 405.5,240.5 Z"/></g>
<g><path style="opacity:0.78" fill="#eece49" d="M 488.5,245.5 C 488.33,246.822 488.663,247.989 489.5,249C 520.505,249.167 551.505,249.667 582.5,250.5C 584.009,252.62 583.676,254.287 581.5,255.5C 581.5,253.833 581.5,252.167 581.5,250.5C 550.498,250.667 519.498,250.5 488.5,250C 487.199,248.384 487.199,246.884 488.5,245.5 Z"/></g>
<g><path style="opacity:0.584" fill="#ebd583" d="M 399.5,248.5 C 398.92,250.749 397.587,252.415 395.5,253.5C 396.08,251.251 397.413,249.585 399.5,248.5 Z"/></g>
<g><path style="opacity:0.867" fill="#e7cf79" d="M 263.5,248.5 C 263.829,251.228 263.163,253.562 261.5,255.5C 261.721,252.933 262.388,250.599 263.5,248.5 Z"/></g>
<g><path style="opacity:1" fill="#eec217" d="M -0.5,260.5 C -0.5,259.167 -0.5,257.833 -0.5,256.5C 66.0964,255.337 132.763,255.171 199.5,256C 200.482,264.081 200.816,272.248 200.5,280.5C 138.832,280.667 77.1658,280.5 15.5,280C 10.3024,273.311 4.96911,266.811 -0.5,260.5 Z"/></g>
<g><path style="opacity:1" fill="#eec217" d="M 907.5,256.5 C 907.5,257.833 907.5,259.167 907.5,260.5C 902.031,266.811 896.698,273.311 891.5,280C 830.167,280.667 768.833,280.667 707.5,280C 706.849,276.082 706.516,272.082 706.5,268C 706.539,263.74 707.206,259.74 708.5,256C 774.904,255.171 841.237,255.337 907.5,256.5 Z"/></g>
<g><path style="opacity:0.855" fill="#edd064" d="M 612.5,263.5 C 613.117,263.611 613.617,263.944 614,264.5C 614.495,266.473 614.662,268.473 614.5,270.5C 613.593,268.343 612.927,266.01 612.5,263.5 Z"/></g>
<g><path style="opacity:0.561" fill="#f2da7e" d="M 259.5,268.5 C 259.55,274.389 258.884,280.056 257.5,285.5C 257.45,279.611 258.116,273.944 259.5,268.5 Z"/></g>
<g><path style="opacity:0.725" fill="#f8e085" d="M 365.5,292.5 C 365.573,294.027 364.906,295.027 363.5,295.5C 363.427,293.973 364.094,292.973 365.5,292.5 Z"/></g>
<g><path style="opacity:1" fill="#eec213" d="M 29.5,293.5 C 86.1676,293.333 142.834,293.5 199.5,294C 200.647,301.754 200.814,309.587 200,317.5C 149.571,318.664 99.0707,318.83 48.5,318C 41.8333,310.667 35.1667,303.333 28.5,296C 29.2524,295.329 29.5858,294.496 29.5,293.5 Z"/></g>
<g><path style="opacity:1" fill="#eec213" d="M 707.5,293.5 C 764.168,293.333 820.834,293.5 877.5,294C 877.957,294.414 878.291,294.914 878.5,295.5C 872.523,303.278 866.19,310.778 859.5,318C 808.833,318.667 758.167,318.667 707.5,318C 706.181,309.833 706.181,301.667 707.5,293.5 Z"/></g>
<g><path style="opacity:0.845" fill="#efcd48" d="M 291.5,283.5 C 290.284,294.16 290.284,304.827 291.5,315.5C 290.103,309.726 289.436,303.726 289.5,297.5C 289.3,292.563 289.967,287.896 291.5,283.5 Z"/></g>
<g><path style="opacity:0.667" fill="#e7cf76" d="M 363.5,295.5 C 362.92,297.749 361.587,299.415 359.5,300.5C 360.08,298.251 361.413,296.585 363.5,295.5 Z"/></g>
<g><path style="opacity:1" fill="#eacb62" d="M 357.5,303.5 C 356.825,306.349 355.158,308.349 352.5,309.5C 353.473,306.865 355.14,304.865 357.5,303.5 Z"/></g>
<g><path style="opacity:0.667" fill="#ebd37a" d="M 343.5,321.5 C 342.92,323.749 341.587,325.415 339.5,326.5C 340.08,324.251 341.413,322.585 343.5,321.5 Z"/></g>
<g><path style="opacity:1" fill="#eec212" d="M 64.5,331.5 C 109.168,331.333 153.835,331.5 198.5,332C 199,332.5 199.5,333 200,333.5C 200.667,341.167 200.667,348.833 200,356.5C 159.904,357.663 119.738,357.83 79.5,357C 73.3972,349.91 67.7306,342.577 62.5,335C 62.8618,333.566 63.5285,332.399 64.5,331.5 Z"/></g>
<g><path style="opacity:1" fill="#eec213" d="M 708.5,331.5 C 753.501,331.333 798.501,331.5 843.5,332C 844.846,334.794 844.346,337.294 842,339.5C 836.789,345.042 831.956,350.875 827.5,357C 787.5,357.667 747.5,357.667 707.5,357C 706.353,349.246 706.186,341.413 707,333.5C 707.717,332.956 708.217,332.289 708.5,331.5 Z"/></g>
<g><path style="opacity:0.78" fill="#f7de7e" d="M 332.5,335.5 C 332.573,337.027 331.906,338.027 330.5,338.5C 330.427,336.973 331.094,335.973 332.5,335.5 Z"/></g>
<g><path style="opacity:0.584" fill="#eed466" d="M 325.5,348.5 C 356.835,348.333 388.168,348.5 419.5,349C 420.791,350.292 420.791,351.458 419.5,352.5C 419.586,351.504 419.252,350.671 418.5,350C 387.331,349.832 356.331,349.332 325.5,348.5 Z"/></g>
<g><path style="opacity:1" fill="#eccb4e" d="M 296.5,342.5 C 298.204,345.939 299.538,349.605 300.5,353.5C 299.542,353.047 298.708,352.381 298,351.5C 297.304,348.522 296.804,345.522 296.5,342.5 Z"/></g>
<g><path style="opacity:1" fill="#e9cb5d" d="M 608.5,352.5 C 608.834,355.491 607.834,357.824 605.5,359.5C 605.935,356.843 606.935,354.509 608.5,352.5 Z"/></g>
<g><path style="opacity:0.839" fill="#ead06c" d="M 419.5,354.5 C 419.59,357.152 418.924,359.485 417.5,361.5C 417.41,358.848 418.076,356.515 419.5,354.5 Z"/></g>
<g><path style="opacity:0.851" fill="#ebd16b" d="M 416.5,365.5 C 416.59,368.152 415.924,370.485 414.5,372.5C 414.41,369.848 415.076,367.515 416.5,365.5 Z"/></g>
<g><path style="opacity:1" fill="#f3d154" d="M 603.5,364.5 C 602.024,370.461 599.691,376.128 596.5,381.5C 595.643,382.425 594.643,383.092 593.5,383.5C 596.582,377.001 599.915,370.668 603.5,364.5 Z"/></g>
<g><path style="opacity:0.863" fill="#e7cd66" d="M 413.5,376.5 C 413.59,379.152 412.924,381.485 411.5,383.5C 411.41,380.848 412.076,378.515 413.5,376.5 Z"/></g>
<g><path style="opacity:1" fill="#e9cb60" d="M 311.5,378.5 C 312.89,379.899 313.89,381.566 314.5,383.5C 312.241,382.656 311.241,380.989 311.5,378.5 Z"/></g>
<g><path style="opacity:0.494" fill="#e6d180" d="M 593.5,383.5 C 593.573,385.027 592.906,386.027 591.5,386.5C 591.427,384.973 592.094,383.973 593.5,383.5 Z"/></g>
<g><path style="opacity:0.78" fill="#f7de7d" d="M 411.5,383.5 C 411.59,386.152 410.924,388.485 409.5,390.5C 409.41,387.848 410.076,385.515 411.5,383.5 Z"/></g>
<g><path style="opacity:0.518" fill="#e6d181" d="M 591.5,386.5 C 591.573,388.027 590.906,389.027 589.5,389.5C 589.427,387.973 590.094,386.973 591.5,386.5 Z"/></g>
<g><path style="opacity:0.651" fill="#ead37b" d="M 316.5,387.5 C 318.262,388.262 319.262,389.596 319.5,391.5C 317.738,390.738 316.738,389.404 316.5,387.5 Z"/></g>
<g><path style="opacity:0.573" fill="#f1db83" d="M 589.5,389.5 C 589.573,391.027 588.906,392.027 587.5,392.5C 587.427,390.973 588.094,389.973 589.5,389.5 Z"/></g>
<g><path style="opacity:0.541" fill="#f8e189" d="M 319.5,391.5 C 320.906,391.973 321.573,392.973 321.5,394.5C 320.094,394.027 319.427,393.027 319.5,391.5 Z"/></g>
<g><path style="opacity:0.62" fill="#e7cf73" d="M 587.5,392.5 C 587.573,394.027 586.906,395.027 585.5,395.5C 585.427,393.973 586.094,392.973 587.5,392.5 Z"/></g>
<g><path style="opacity:0.933" fill="#e8ce74" d="M 282.5,396.5 C 284.048,396.821 284.715,397.821 284.5,399.5C 283.599,398.71 282.932,397.71 282.5,396.5 Z"/></g>
<g><path style="opacity:0.827" fill="#ead06e" d="M 408.5,394.5 C 408.59,397.152 407.924,399.485 406.5,401.5C 406.41,398.848 407.076,396.515 408.5,394.5 Z"/></g>
<g><path style="opacity:0.459" fill="#e9d68b" d="M 579.5,402.5 C 578.581,405.089 576.914,407.089 574.5,408.5C 575.419,405.911 577.086,403.911 579.5,402.5 Z"/></g>
<g><path style="opacity:0.816" fill="#f2d975" d="M 405.5,405.5 C 405.59,408.152 404.924,410.485 403.5,412.5C 403.41,409.848 404.076,407.515 405.5,405.5 Z"/></g>
<g><path style="opacity:1" fill="#eec218" d="M 206.5,415.5 C 206.241,417.989 207.241,419.656 209.5,420.5C 212.008,424.182 214.008,428.182 215.5,432.5C 215.427,434.027 216.094,435.027 217.5,435.5C 217.241,437.989 218.241,439.656 220.5,440.5C 220.241,442.989 221.241,444.656 223.5,445.5C 224.401,446.29 225.068,447.29 225.5,448.5C 225.427,450.027 226.094,451.027 227.5,451.5C 227.427,453.027 228.094,454.027 229.5,454.5C 230.338,454.842 230.672,455.508 230.5,456.5C 230.738,458.404 231.738,459.738 233.5,460.5C 233.738,462.404 234.738,463.738 236.5,464.5C 236.738,466.404 237.738,467.738 239.5,468.5C 239.738,470.404 240.738,471.738 242.5,472.5C 243.419,475.089 245.086,477.089 247.5,478.5C 248.419,481.089 250.086,483.089 252.5,484.5C 254.167,485.5 255.5,486.833 256.5,488.5C 256.525,491.179 257.858,492.512 260.5,492.5C 260.525,495.179 261.858,496.512 264.5,496.5C 264.525,499.179 265.858,500.512 268.5,500.5C 273.313,505.07 278.313,509.403 283.5,513.5C 284.13,516.705 286.13,518.371 289.5,518.5C 290.5,519.167 291.5,519.833 292.5,520.5C 293.13,523.705 295.13,525.371 298.5,525.5C 298.833,525.5 299.167,525.5 299.5,525.5C 300.177,528.075 301.677,530.075 304,531.5C 304.986,530.829 306.153,530.829 307.5,531.5C 309.062,531.733 310.395,532.4 311.5,533.5C 311.821,535.048 312.821,535.715 314.5,535.5C 323.374,540.437 332.374,545.104 341.5,549.5C 341.821,551.048 342.821,551.715 344.5,551.5C 347.912,552.075 350.912,553.408 353.5,555.5C 354.552,557.256 356.219,557.923 358.5,557.5C 367.567,560.3 376.567,563.3 385.5,566.5C 385.611,567.117 385.944,567.617 386.5,568C 388.473,568.495 390.473,568.662 392.5,568.5C 392.833,568.5 393.167,568.5 393.5,568.5C 393.611,569.117 393.944,569.617 394.5,570C 397.757,571.043 401.09,571.543 404.5,571.5C 405.5,571.5 406.5,571.5 407.5,571.5C 410.123,573.265 413.123,573.932 416.5,573.5C 441.156,576.44 465.823,576.773 490.5,574.5C 497.227,574.213 503.893,573.379 510.5,572C 511.416,571.722 512.082,571.222 512.5,570.5C 516.239,568.898 520.239,567.898 524.5,567.5C 527.152,567.59 529.485,566.924 531.5,565.5C 535.708,565.323 539.374,563.99 542.5,561.5C 544.421,560.637 546.421,559.971 548.5,559.5C 551.716,559.655 554.383,558.655 556.5,556.5C 560.203,554.321 564.203,552.655 568.5,551.5C 574.175,550.494 579.175,548.161 583.5,544.5C 585.848,544.408 587.514,543.408 588.5,541.5C 589.514,540.326 590.847,539.66 592.5,539.5C 594.027,539.573 595.027,538.906 595.5,537.5C 595.842,536.662 596.508,536.328 597.5,536.5C 599.027,536.573 600.027,535.906 600.5,534.5C 601.899,533.11 603.566,532.11 605.5,531.5C 607.027,531.573 608.027,530.906 608.5,529.5C 610.027,529.573 611.027,528.906 611.5,527.5C 613.027,527.573 614.027,526.906 614.5,525.5C 616.404,525.262 617.738,524.262 618.5,522.5C 620.027,522.573 621.027,521.906 621.5,520.5C 623.749,519.92 625.415,518.587 626.5,516.5C 627.262,514.738 628.596,513.738 630.5,513.5C 633.764,511.906 636.431,509.573 638.5,506.5C 645.167,501.833 650.833,496.167 655.5,489.5C 656.5,487.833 657.833,486.5 659.5,485.5C 662.243,483.761 664.243,481.427 665.5,478.5C 667.914,477.089 669.581,475.089 670.5,472.5C 672.262,471.738 673.262,470.404 673.5,468.5C 674.906,468.027 675.573,467.027 675.5,465.5C 676.604,463.611 677.937,461.945 679.5,460.5C 681.262,459.738 682.262,458.404 682.5,456.5C 683.11,454.566 684.11,452.899 685.5,451.5C 687.262,450.738 688.262,449.404 688.5,447.5C 689.11,445.566 690.11,443.899 691.5,442.5C 693.408,441.514 694.408,439.848 694.5,437.5C 696.408,436.514 697.408,434.848 697.5,432.5C 701.044,429.413 703.044,425.413 703.5,420.5C 704.435,418.139 705.768,415.972 707.5,414C 716.494,413.5 725.494,413.334 734.5,413.5C 732.43,423.972 728.43,433.638 722.5,442.5C 721.094,442.973 720.427,443.973 720.5,445.5C 720.008,447.819 719.008,449.819 717.5,451.5C 716.094,451.973 715.427,452.973 715.5,454.5C 715.672,455.492 715.338,456.158 714.5,456.5C 713.094,456.973 712.427,457.973 712.5,459.5C 712.672,460.492 712.338,461.158 711.5,461.5C 710.094,461.973 709.427,462.973 709.5,464.5C 708.094,464.973 707.427,465.973 707.5,467.5C 706.094,467.973 705.427,468.973 705.5,470.5C 700.311,479.691 693.978,488.024 686.5,495.5C 685.094,495.973 684.427,496.973 684.5,498.5C 683.5,500.167 682.167,501.5 680.5,502.5C 679.094,502.973 678.427,503.973 678.5,505.5C 673.167,511.5 667.5,517.167 661.5,522.5C 659.973,522.427 658.973,523.094 658.5,524.5C 649.059,533.941 638.726,542.274 627.5,549.5C 625.973,549.427 624.973,550.094 624.5,551.5C 619.033,555.953 613.033,559.619 606.5,562.5C 604.973,562.427 603.973,563.094 603.5,564.5C 564.901,586.256 523.568,598.923 479.5,602.5C 464.167,602.5 448.833,602.5 433.5,602.5C 422.338,602.029 411.338,600.362 400.5,597.5C 397.781,596.087 394.781,595.42 391.5,595.5C 389.095,594.232 386.428,593.565 383.5,593.5C 379.239,593.102 375.239,592.102 371.5,590.5C 368.916,588.528 365.916,587.528 362.5,587.5C 362.167,587.5 361.833,587.5 361.5,587.5C 360.365,585.787 358.698,585.12 356.5,585.5C 339.949,580.389 324.282,573.389 309.5,564.5C 309.027,563.094 308.027,562.427 306.5,562.5C 305.508,562.672 304.842,562.338 304.5,561.5C 304.027,560.094 303.027,559.427 301.5,559.5C 300.508,559.672 299.842,559.338 299.5,558.5C 299.027,557.094 298.027,556.427 296.5,556.5C 296.027,555.094 295.027,554.427 293.5,554.5C 293.027,553.094 292.027,552.427 290.5,552.5C 289.508,552.672 288.842,552.338 288.5,551.5C 287.738,549.738 286.404,548.738 284.5,548.5C 284.027,547.094 283.027,546.427 281.5,546.5C 280.738,544.738 279.404,543.738 277.5,543.5C 276.738,541.738 275.404,540.738 273.5,540.5C 272.738,538.738 271.404,537.738 269.5,537.5C 268.089,535.086 266.089,533.419 263.5,532.5C 262.089,530.086 260.089,528.419 257.5,527.5C 256.5,527.167 255.833,526.5 255.5,525.5C 253.761,522.757 251.427,520.757 248.5,519.5C 248.5,517.5 247.5,516.5 245.5,516.5C 242.5,514.167 239.833,511.5 237.5,508.5C 236.581,505.911 234.914,503.911 232.5,502.5C 230.833,501.5 229.5,500.167 228.5,498.5C 228.573,496.973 227.906,495.973 226.5,495.5C 225.5,495.167 224.833,494.5 224.5,493.5C 224.5,492.167 223.833,491.5 222.5,491.5C 218.754,487.094 215.42,482.427 212.5,477.5C 212.446,475.368 211.446,474.035 209.5,473.5C 209.573,471.973 208.906,470.973 207.5,470.5C 207.573,468.973 206.906,467.973 205.5,467.5C 204.599,466.71 203.932,465.71 203.5,464.5C 203.573,462.973 202.906,461.973 201.5,461.5C 200.662,461.158 200.328,460.492 200.5,459.5C 200.573,457.973 199.906,456.973 198.5,456.5C 197.662,456.158 197.328,455.492 197.5,454.5C 197.573,452.973 196.906,451.973 195.5,451.5C 193.992,449.819 192.992,447.819 192.5,445.5C 192.573,443.973 191.906,442.973 190.5,442.5C 186.17,435.173 182.336,427.506 179,419.5C 177.064,413.77 179.064,411.436 185,412.5C 191.827,413.088 198.66,413.588 205.5,414C 206.056,414.383 206.389,414.883 206.5,415.5 Z"/></g>
<g><path style="opacity:1" fill="#eacb5f" d="M 206.5,415.5 C 207.89,416.899 208.89,418.566 209.5,420.5C 207.241,419.656 206.241,417.989 206.5,415.5 Z"/></g>
<g><path style="opacity:0.851" fill="#e7cd68" d="M 402.5,416.5 C 402.59,419.152 401.924,421.485 400.5,423.5C 400.41,420.848 401.076,418.515 402.5,416.5 Z"/></g>
<g><path style="opacity:1" fill="#f6d76a" d="M 343.5,418.5 C 345.167,419.5 346.5,420.833 347.5,422.5C 344.858,422.512 343.525,421.179 343.5,418.5 Z"/></g>
<g><path style="opacity:0.843" fill="#edd373" d="M 563.5,419.5 C 562.089,421.914 560.089,423.581 557.5,424.5C 558.911,422.086 560.911,420.419 563.5,419.5 Z"/></g>
<g><path style="opacity:0.035" fill="#e3d6a3" d="M 604.5,425.5 C 604.573,427.027 603.906,428.027 602.5,428.5C 602.427,426.973 603.094,425.973 604.5,425.5 Z"/></g>
<g><path style="opacity:0.831" fill="#e7cf71" d="M 557.5,424.5 C 556.415,426.587 554.749,427.92 552.5,428.5C 553.585,426.413 555.251,425.08 557.5,424.5 Z"/></g>
<g><path style="opacity:0.62" fill="#e8d27f" d="M 552.5,428.5 C 551.738,430.262 550.404,431.262 548.5,431.5C 549.262,429.738 550.596,428.738 552.5,428.5 Z"/></g>
<g><path style="opacity:1" fill="#eccb56" d="M 703.5,420.5 C 703.044,425.413 701.044,429.413 697.5,432.5C 698.992,428.182 700.992,424.182 703.5,420.5 Z"/></g>
<g><path style="opacity:0.851" fill="#f1d76f" d="M 399.5,427.5 C 399.59,430.152 398.924,432.485 397.5,434.5C 397.41,431.848 398.076,429.515 399.5,427.5 Z"/></g>
<g><path style="opacity:0.675" fill="#e6d07d" d="M 548.5,431.5 C 548.027,432.906 547.027,433.573 545.5,433.5C 545.973,432.094 546.973,431.427 548.5,431.5 Z"/></g>
<g><path style="opacity:0.486" fill="#f9e495" d="M 215.5,432.5 C 216.906,432.973 217.573,433.973 217.5,435.5C 216.094,435.027 215.427,434.027 215.5,432.5 Z"/></g>
<g><path style="opacity:0.639" fill="#e6d185" d="M 545.5,433.5 C 545.027,434.906 544.027,435.573 542.5,435.5C 542.973,434.094 543.973,433.427 545.5,433.5 Z"/></g>
<g><path style="opacity:1" fill="#f6d769" d="M 697.5,432.5 C 697.408,434.848 696.408,436.514 694.5,437.5C 694.75,435.326 695.75,433.659 697.5,432.5 Z"/></g>
<g><path style="opacity:0.78" fill="#f4db7a" d="M 397.5,434.5 C 397.59,437.152 396.924,439.485 395.5,441.5C 395.41,438.848 396.076,436.515 397.5,434.5 Z"/></g>
<g><path style="opacity:1" fill="#f4d467" d="M 217.5,435.5 C 218.89,436.899 219.89,438.566 220.5,440.5C 218.241,439.656 217.241,437.989 217.5,435.5 Z"/></g>
<g><path style="opacity:1" fill="#f4d66b" d="M 694.5,437.5 C 694.408,439.848 693.408,441.514 691.5,442.5C 691.75,440.326 692.75,438.659 694.5,437.5 Z"/></g>
<g><path style="opacity:1" fill="#f1d367" d="M 220.5,440.5 C 221.89,441.899 222.89,443.566 223.5,445.5C 221.241,444.656 220.241,442.989 220.5,440.5 Z"/></g>
<g><path style="opacity:0.753" fill="#f6e192" d="M 320.5,443.5 C 323.089,444.419 325.089,446.086 326.5,448.5C 323.911,447.581 321.911,445.914 320.5,443.5 Z"/></g>
<g><path style="opacity:0.741" fill="#ecd374" d="M 361.5,441.5 C 360.79,445.025 359.79,448.358 358.5,451.5C 358.288,447.655 359.288,444.321 361.5,441.5 Z"/></g>
<g><path style="opacity:0.192" fill="#fbeeba" d="M 190.5,442.5 C 191.906,442.973 192.573,443.973 192.5,445.5C 191.094,445.027 190.427,444.027 190.5,442.5 Z"/></g>
<g><path style="opacity:0.192" fill="#fbeebb" d="M 722.5,442.5 C 722.573,444.027 721.906,445.027 720.5,445.5C 720.427,443.973 721.094,442.973 722.5,442.5 Z"/></g>
<g><path style="opacity:0.804" fill="#f2d977" d="M 394.5,445.5 C 394.59,448.152 393.924,450.485 392.5,452.5C 392.41,449.848 393.076,447.515 394.5,445.5 Z"/></g>
<g><path style="opacity:0.698" fill="#e7d079" d="M 688.5,447.5 C 688.262,449.404 687.262,450.738 685.5,451.5C 685.738,449.596 686.738,448.262 688.5,447.5 Z"/></g>
<g><path style="opacity:0.475" fill="#e5d390" d="M 225.5,448.5 C 226.906,448.973 227.573,449.973 227.5,451.5C 226.094,451.027 225.427,450.027 225.5,448.5 Z"/></g>
<g><path style="opacity:0.686" fill="#f8e28d" d="M 328.5,450.5 C 330.027,450.427 331.027,451.094 331.5,452.5C 329.973,452.573 328.973,451.906 328.5,450.5 Z"/></g>
<g><path style="opacity:0.231" fill="#e2d6a6" d="M 195.5,451.5 C 196.906,451.973 197.573,452.973 197.5,454.5C 196.094,454.027 195.427,453.027 195.5,451.5 Z"/></g>
<g><path style="opacity:0.443" fill="#e5d393" d="M 227.5,451.5 C 228.906,451.973 229.573,452.973 229.5,454.5C 228.094,454.027 227.427,453.027 227.5,451.5 Z"/></g>
<g><path style="opacity:0.153" fill="#fbefc0" d="M 717.5,451.5 C 717.573,453.027 716.906,454.027 715.5,454.5C 715.427,452.973 716.094,451.973 717.5,451.5 Z"/></g>
<g><path style="opacity:0.871" fill="#e7cf73" d="M 230.5,456.5 C 232.262,457.262 233.262,458.596 233.5,460.5C 231.738,459.738 230.738,458.404 230.5,456.5 Z"/></g>
<g><path style="opacity:0.663" fill="#f9e391" d="M 337.5,457.5 C 339.027,457.427 340.027,458.094 340.5,459.5C 338.973,459.573 337.973,458.906 337.5,457.5 Z"/></g>
<g><path style="opacity:0.871" fill="#e7cf74" d="M 682.5,456.5 C 682.262,458.404 681.262,459.738 679.5,460.5C 679.738,458.596 680.738,457.262 682.5,456.5 Z"/></g>
<g><path style="opacity:0.231" fill="#e2d6a7" d="M 198.5,456.5 C 199.906,456.973 200.573,457.973 200.5,459.5C 199.094,459.027 198.427,458.027 198.5,456.5 Z"/></g>
<g><path style="opacity:0.224" fill="#e2d6a8" d="M 714.5,456.5 C 714.573,458.027 713.906,459.027 712.5,459.5C 712.427,457.973 713.094,456.973 714.5,456.5 Z"/></g>
<g><path style="opacity:0.839" fill="#e7ce6a" d="M 391.5,456.5 C 391.59,459.152 390.924,461.485 389.5,463.5C 389.41,460.848 390.076,458.515 391.5,456.5 Z"/></g>
<g><path style="opacity:0.549" fill="#e7d386" d="M 340.5,459.5 C 342.404,459.738 343.738,460.738 344.5,462.5C 342.596,462.262 341.262,461.262 340.5,459.5 Z"/></g>
<g><path style="opacity:0.827" fill="#e9d37e" d="M 233.5,460.5 C 235.262,461.262 236.262,462.596 236.5,464.5C 234.738,463.738 233.738,462.404 233.5,460.5 Z"/></g>
<g><path style="opacity:0.122" fill="#eee3b7" d="M 201.5,461.5 C 202.906,461.973 203.573,462.973 203.5,464.5C 202.094,464.027 201.427,463.027 201.5,461.5 Z"/></g>
<g><path style="opacity:0.122" fill="#eee3b8" d="M 711.5,461.5 C 711.573,463.027 710.906,464.027 709.5,464.5C 709.427,462.973 710.094,461.973 711.5,461.5 Z"/></g>
<g><path style="opacity:0.541" fill="#f7e084" d="M 346.5,463.5 C 348.027,463.427 349.027,464.094 349.5,465.5C 347.973,465.573 346.973,464.906 346.5,463.5 Z"/></g>
<g><path style="opacity:0.757" fill="#edd88a" d="M 236.5,464.5 C 238.262,465.262 239.262,466.596 239.5,468.5C 237.738,467.738 236.738,466.404 236.5,464.5 Z"/></g>
<g><path style="opacity:0.573" fill="#e6d07c" d="M 349.5,465.5 C 351.234,466.562 352.901,466.562 354.5,465.5C 352.962,468.048 351.296,468.048 349.5,465.5 Z"/></g>
<g><path style="opacity:0.204" fill="#e2d7aa" d="M 709.5,464.5 C 709.573,466.027 708.906,467.027 707.5,467.5C 707.427,465.973 708.094,464.973 709.5,464.5 Z"/></g>
<g><path style="opacity:0.455" fill="#e4d497" d="M 675.5,465.5 C 675.573,467.027 674.906,468.027 673.5,468.5C 673.427,466.973 674.094,465.973 675.5,465.5 Z"/></g>
<g><path style="opacity:0.212" fill="#e2d6a8" d="M 205.5,467.5 C 206.906,467.973 207.573,468.973 207.5,470.5C 206.094,470.027 205.427,469.027 205.5,467.5 Z"/></g>
<g><path style="opacity:0.757" fill="#e8d48a" d="M 239.5,468.5 C 241.262,469.262 242.262,470.596 242.5,472.5C 240.738,471.738 239.738,470.404 239.5,468.5 Z"/></g>
<g><path style="opacity:0.749" fill="#e9d487" d="M 673.5,468.5 C 673.262,470.404 672.262,471.738 670.5,472.5C 670.738,470.596 671.738,469.262 673.5,468.5 Z"/></g>
<g><path style="opacity:0.212" fill="#e2d6a8" d="M 707.5,467.5 C 707.573,469.027 706.906,470.027 705.5,470.5C 705.427,468.973 706.094,467.973 707.5,467.5 Z"/></g>
<g><path style="opacity:0.129" fill="#f9ecbe" d="M 207.5,470.5 C 208.906,470.973 209.573,471.973 209.5,473.5C 208.094,473.027 207.427,472.027 207.5,470.5 Z"/></g>
<g><path style="opacity:0.98" fill="#f9df87" d="M 209.5,473.5 C 211.446,474.035 212.446,475.368 212.5,477.5C 211.026,476.564 210.026,475.23 209.5,473.5 Z"/></g>
<g><path style="opacity:0.859" fill="#f1da89" d="M 242.5,472.5 C 244.914,473.911 246.581,475.911 247.5,478.5C 245.086,477.089 243.419,475.089 242.5,472.5 Z"/></g>
<g><path style="opacity:0.69" fill="#f0d672" d="M 388.5,467.5 C 388.59,470.152 387.924,472.485 386.5,474.5C 386.41,471.848 387.076,469.515 388.5,467.5 Z"/></g>
<g><path style="opacity:0.482" fill="#e5d289" d="M 456.5,471.5 C 456.573,473.027 455.906,474.027 454.5,474.5C 454.427,472.973 455.094,471.973 456.5,471.5 Z"/></g>
<g><path style="opacity:0.831" fill="#f2d97d" d="M 454.5,474.5 C 454.262,476.404 453.262,477.738 451.5,478.5C 451.738,476.596 452.738,475.262 454.5,474.5 Z"/></g>
<g><path style="opacity:0.678" fill="#e8d385" d="M 670.5,472.5 C 669.581,475.089 667.914,477.089 665.5,478.5C 666.419,475.911 668.086,473.911 670.5,472.5 Z"/></g>
<g><path style="opacity:0.769" fill="#f4dc7e" d="M 386.5,474.5 C 386.59,477.152 385.924,479.485 384.5,481.5C 384.41,478.848 385.076,476.515 386.5,474.5 Z"/></g>
<g><path style="opacity:0.82" fill="#f8e294" d="M 247.5,478.5 C 249.914,479.911 251.581,481.911 252.5,484.5C 250.086,483.089 248.419,481.089 247.5,478.5 Z"/></g>
<g><path style="opacity:0.561" fill="#e7d384" d="M 451.5,478.5 C 450.92,480.749 449.587,482.415 447.5,483.5C 448.08,481.251 449.413,479.585 451.5,478.5 Z"/></g>
<g><path style="opacity:0.576" fill="#efda8f" d="M 665.5,478.5 C 664.243,481.427 662.243,483.761 659.5,485.5C 660.757,482.573 662.757,480.239 665.5,478.5 Z"/></g>
<g><path style="opacity:0.776" fill="#e7cf73" d="M 447.5,483.5 C 447.573,485.027 446.906,486.027 445.5,486.5C 445.427,484.973 446.094,483.973 447.5,483.5 Z"/></g>
<g><path style="opacity:0.627" fill="#fae7a3" d="M 222.5,491.5 C 223.833,491.5 224.5,492.167 224.5,493.5C 223.5,493.167 222.833,492.5 222.5,491.5 Z"/></g>
<g><path style="opacity:1" fill="#f6d76a" d="M 256.5,488.5 C 258.167,489.5 259.5,490.833 260.5,492.5C 257.858,492.512 256.525,491.179 256.5,488.5 Z"/></g>
<g><path style="opacity:0.643" fill="#f4dc7d" d="M 383.5,485.5 C 383.59,488.152 382.924,490.485 381.5,492.5C 381.41,489.848 382.076,487.515 383.5,485.5 Z"/></g>
<g><path style="opacity:0.259" fill="#e4d391" d="M 441.5,491.5 C 441.5,492.5 441.5,493.5 441.5,494.5C 442.791,494.263 443.791,494.596 444.5,495.5C 443.167,495.5 441.833,495.5 440.5,495.5C 440.232,493.901 440.566,492.568 441.5,491.5 Z"/></g>
<g><path style="opacity:1" fill="#f1d36a" d="M 260.5,492.5 C 262.167,493.5 263.5,494.833 264.5,496.5C 261.858,496.512 260.525,495.179 260.5,492.5 Z"/></g>
<g><path style="opacity:0.102" fill="#e2d6aa" d="M 226.5,495.5 C 227.906,495.973 228.573,496.973 228.5,498.5C 227.094,498.027 226.427,497.027 226.5,495.5 Z"/></g>
<g><path style="opacity:0.09" fill="#ebe1b6" d="M 686.5,495.5 C 686.573,497.027 685.906,498.027 684.5,498.5C 684.427,496.973 685.094,495.973 686.5,495.5 Z"/></g>
<g><path style="opacity:1" fill="#f7d86c" d="M 264.5,496.5 C 266.167,497.5 267.5,498.833 268.5,500.5C 265.858,500.512 264.525,499.179 264.5,496.5 Z"/></g>
<g><path style="opacity:0.804" fill="#f6dd7c" d="M 380.5,496.5 C 380.59,499.152 379.924,501.485 378.5,503.5C 378.41,500.848 379.076,498.515 380.5,496.5 Z"/></g>
<g><path style="opacity:0.776" fill="#eed473" d="M 655.5,489.5 C 650.833,496.167 645.167,501.833 638.5,506.5C 643.833,500.5 649.5,494.833 655.5,489.5 Z"/></g>
<g><path style="opacity:0.09" fill="#e5d7a4" d="M 232.5,502.5 C 234.914,503.911 236.581,505.911 237.5,508.5C 235.086,507.089 233.419,505.089 232.5,502.5 Z"/></g>
<g><path style="opacity:0.09" fill="#e6dbb2" d="M 680.5,502.5 C 680.573,504.027 679.906,505.027 678.5,505.5C 678.427,503.973 679.094,502.973 680.5,502.5 Z"/></g>
<g><path style="opacity:0.757" fill="#ebd274" d="M 638.5,506.5 C 636.431,509.573 633.764,511.906 630.5,513.5C 632.569,510.427 635.236,508.094 638.5,506.5 Z"/></g>
<g><path style="opacity:0.667" fill="#f0d775" d="M 377.5,507.5 C 377.59,510.152 376.924,512.485 375.5,514.5C 375.41,511.848 376.076,509.515 377.5,507.5 Z"/></g>
<g><path style="opacity:0.737" fill="#f9e393" d="M 245.5,516.5 C 247.5,516.5 248.5,517.5 248.5,519.5C 247.167,518.833 246.167,517.833 245.5,516.5 Z"/></g>
<g><path style="opacity:1" fill="#efd166" d="M 283.5,513.5 C 285.54,515.177 287.54,516.844 289.5,518.5C 286.13,518.371 284.13,516.705 283.5,513.5 Z"/></g>
<g><path style="opacity:0.706" fill="#ead898" d="M 248.5,519.5 C 251.427,520.757 253.761,522.757 255.5,525.5C 252.573,524.243 250.239,522.243 248.5,519.5 Z"/></g>
<g><path style="opacity:0.89" fill="#edd26e" d="M 626.5,516.5 C 625.415,518.587 623.749,519.92 621.5,520.5C 622.585,518.413 624.251,517.08 626.5,516.5 Z"/></g>
<g><path style="opacity:0.757" fill="#e9cf69" d="M 374.5,518.5 C 374.077,520.781 374.744,522.448 376.5,523.5C 375.791,524.404 374.791,524.737 373.5,524.5C 373.205,522.265 373.539,520.265 374.5,518.5 Z"/></g>
<g><path style="opacity:0.737" fill="#e6d079" d="M 621.5,520.5 C 621.027,521.906 620.027,522.573 618.5,522.5C 618.973,521.094 619.973,520.427 621.5,520.5 Z"/></g>
<g><path style="opacity:1" fill="#edcf6a" d="M 292.5,520.5 C 294.909,521.701 296.909,523.367 298.5,525.5C 295.13,525.371 293.13,523.705 292.5,520.5 Z"/></g>
<g><path style="opacity:0.678" fill="#e7d07c" d="M 618.5,522.5 C 617.738,524.262 616.404,525.262 614.5,525.5C 615.262,523.738 616.596,522.738 618.5,522.5 Z"/></g>
<g><path style="opacity:0.02" fill="#fcf1c8" d="M 661.5,522.5 C 661.027,523.906 660.027,524.573 658.5,524.5C 658.973,523.094 659.973,522.427 661.5,522.5 Z"/></g>
<g><path style="opacity:0.769" fill="#f4db7d" d="M 614.5,525.5 C 614.027,526.906 613.027,527.573 611.5,527.5C 611.973,526.094 612.973,525.427 614.5,525.5 Z"/></g>
<g><path style="opacity:0.859" fill="#ecd688" d="M 257.5,527.5 C 260.089,528.419 262.089,530.086 263.5,532.5C 260.911,531.581 258.911,529.914 257.5,527.5 Z"/></g>
<g><path style="opacity:1" fill="#ebcb5c" d="M 299.5,525.5 C 302.473,527.147 305.14,529.147 307.5,531.5C 306.153,530.829 304.986,530.829 304,531.5C 301.677,530.075 300.177,528.075 299.5,525.5 Z"/></g>
<g><path style="opacity:0.737" fill="#e6d07b" d="M 611.5,527.5 C 611.027,528.906 610.027,529.573 608.5,529.5C 608.973,528.094 609.973,527.427 611.5,527.5 Z"/></g>
<g><path style="opacity:0.769" fill="#e7d079" d="M 608.5,529.5 C 608.027,530.906 607.027,531.573 605.5,531.5C 605.973,530.094 606.973,529.427 608.5,529.5 Z"/></g>
<g><path style="opacity:0.871" fill="#fae290" d="M 311.5,533.5 C 312.71,533.932 313.71,534.599 314.5,535.5C 312.821,535.715 311.821,535.048 311.5,533.5 Z"/></g>
<g><path style="opacity:0.537" fill="#ebd994" d="M 263.5,532.5 C 266.089,533.419 268.089,535.086 269.5,537.5C 266.911,536.581 264.911,534.914 263.5,532.5 Z"/></g>
<g><path style="opacity:0.769" fill="#eed780" d="M 600.5,534.5 C 600.027,535.906 599.027,536.573 597.5,536.5C 597.973,535.094 598.973,534.427 600.5,534.5 Z"/></g>
<g><path style="opacity:0.698" fill="#f9e59b" d="M 269.5,537.5 C 271.404,537.738 272.738,538.738 273.5,540.5C 271.596,540.262 270.262,539.262 269.5,537.5 Z"/></g>
<g><path style="opacity:0.757" fill="#f8e188" d="M 595.5,537.5 C 595.027,538.906 594.027,539.573 592.5,539.5C 592.973,538.094 593.973,537.427 595.5,537.5 Z"/></g>
<g><path style="opacity:0.769" fill="#f9e390" d="M 273.5,540.5 C 275.404,540.738 276.738,541.738 277.5,543.5C 275.596,543.262 274.262,542.262 273.5,540.5 Z"/></g>
<g><path style="opacity:0.788" fill="#eed36b" d="M 588.5,541.5 C 587.514,543.408 585.848,544.408 583.5,544.5C 584.659,542.75 586.326,541.75 588.5,541.5 Z"/></g>
<g><path style="opacity:0.576" fill="#f9e495" d="M 277.5,543.5 C 279.404,543.738 280.738,544.738 281.5,546.5C 279.596,546.262 278.262,545.262 277.5,543.5 Z"/></g>
<g><path style="opacity:0.455" fill="#fae79e" d="M 281.5,546.5 C 283.027,546.427 284.027,547.094 284.5,548.5C 282.973,548.573 281.973,547.906 281.5,546.5 Z"/></g>
<g><path style="opacity:1" fill="#eece59" d="M 583.5,544.5 C 579.175,548.161 574.175,550.494 568.5,551.5C 573.07,548.384 578.07,546.05 583.5,544.5 Z"/></g>
<g><path style="opacity:0.565" fill="#e7d48b" d="M 284.5,548.5 C 286.404,548.738 287.738,549.738 288.5,551.5C 286.596,551.262 285.262,550.262 284.5,548.5 Z"/></g>
<g><path style="opacity:0.839" fill="#fae390" d="M 341.5,549.5 C 342.71,549.932 343.71,550.599 344.5,551.5C 342.821,551.715 341.821,551.048 341.5,549.5 Z"/></g>
<g><path style="opacity:0.082" fill="#e1d8b4" d="M 627.5,549.5 C 627.027,550.906 626.027,551.573 624.5,551.5C 624.973,550.094 625.973,549.427 627.5,549.5 Z"/></g>
<g><path style="opacity:0.475" fill="#f8e496" d="M 290.5,552.5 C 292.027,552.427 293.027,553.094 293.5,554.5C 291.973,554.573 290.973,553.906 290.5,552.5 Z"/></g>
<g><path style="opacity:0.475" fill="#e5d28a" d="M 293.5,554.5 C 295.027,554.427 296.027,555.094 296.5,556.5C 294.973,556.573 293.973,555.906 293.5,554.5 Z"/></g>
<g><path style="opacity:1" fill="#f4d56b" d="M 353.5,555.5 C 355.553,555.402 357.22,556.069 358.5,557.5C 356.219,557.923 354.552,557.256 353.5,555.5 Z"/></g>
<g><path style="opacity:0.416" fill="#e4d392" d="M 296.5,556.5 C 298.027,556.427 299.027,557.094 299.5,558.5C 297.973,558.573 296.973,557.906 296.5,556.5 Z"/></g>
<g><path style="opacity:0.918" fill="#ebce65" d="M 556.5,556.5 C 554.383,558.655 551.716,559.655 548.5,559.5C 550.936,558.129 553.603,557.129 556.5,556.5 Z"/></g>
<g><path style="opacity:0.365" fill="#e4d497" d="M 301.5,559.5 C 303.027,559.427 304.027,560.094 304.5,561.5C 302.973,561.573 301.973,560.906 301.5,559.5 Z"/></g>
<g><path style="opacity:0.322" fill="#e3d5a0" d="M 306.5,562.5 C 308.027,562.427 309.027,563.094 309.5,564.5C 307.973,564.573 306.973,563.906 306.5,562.5 Z"/></g>
<g><path style="opacity:0.949" fill="#f3d562" d="M 542.5,561.5 C 539.374,563.99 535.708,565.323 531.5,565.5C 534.939,563.796 538.605,562.462 542.5,561.5 Z"/></g>
<g><path style="opacity:0.012" fill="#f6ecc6" d="M 606.5,562.5 C 606.027,563.906 605.027,564.573 603.5,564.5C 603.973,563.094 604.973,562.427 606.5,562.5 Z"/></g>
<g><path style="opacity:0.878" fill="#ead06d" d="M 531.5,565.5 C 529.485,566.924 527.152,567.59 524.5,567.5C 526.515,566.076 528.848,565.41 531.5,565.5 Z"/></g>
<g><path style="opacity:0.91" fill="#ecd16c" d="M 385.5,566.5 C 388.067,566.721 390.401,567.388 392.5,568.5C 390.473,568.662 388.473,568.495 386.5,568C 385.944,567.617 385.611,567.117 385.5,566.5 Z"/></g>
<g><path style="opacity:0.949" fill="#f0d266" d="M 393.5,568.5 C 397.397,569.055 401.063,570.055 404.5,571.5C 401.09,571.543 397.757,571.043 394.5,570C 393.944,569.617 393.611,569.117 393.5,568.5 Z"/></g>
<g><path style="opacity:0.91" fill="#eed473" d="M 407.5,571.5 C 410.689,571.858 413.689,572.525 416.5,573.5C 413.123,573.932 410.123,573.265 407.5,571.5 Z"/></g>
<g><path style="opacity:1" fill="#efce51" d="M 512.5,570.5 C 512.082,571.222 511.416,571.722 510.5,572C 503.893,573.379 497.227,574.213 490.5,574.5C 497.631,572.754 504.965,571.421 512.5,570.5 Z"/></g>
<g><path style="opacity:0.941" fill="#ead27b" d="M 356.5,585.5 C 358.698,585.12 360.365,585.787 361.5,587.5C 359.597,587.204 357.93,586.537 356.5,585.5 Z"/></g>
<g><path style="opacity:0.847" fill="#f4de90" d="M 362.5,587.5 C 365.916,587.528 368.916,588.528 371.5,590.5C 368.215,590.072 365.215,589.072 362.5,587.5 Z"/></g>
<g><path style="opacity:0.808" fill="#e9d381" d="M 383.5,593.5 C 386.428,593.565 389.095,594.232 391.5,595.5C 388.505,595.706 385.838,595.04 383.5,593.5 Z"/></g>
<g><path style="opacity:0.808" fill="#f5df8e" d="M 391.5,595.5 C 394.781,595.42 397.781,596.087 400.5,597.5C 397.219,597.58 394.219,596.913 391.5,595.5 Z"/></g>
</svg>
